<svg width="326" height="316" viewBox="0 0 326 316" fill="none" xmlns="http://www.w3.org/2000/svg">
<g filter="url(#filter0_d_4_9)">
<path d="M232.43 28.1898C242.221 41.9979 230.741 64.3842 245.268 74.7691C259.41 84.878 276.782 68.3081 290.109 77.0099C309.879 89.9183 306.269 148.985 277.364 185.684C268.671 196.72 261.408 201.015 258.191 213.497C251.283 240.299 275.56 256.242 270.94 269.498C260.538 299.345 100.56 324.39 36.3701 234.69C6.39069 192.796 1.90509 132.3 28.6907 86.3538C77.0921 3.32928 210.462 -2.79305 232.43 28.1898Z" fill="#F4F7FA"/>
<path d="M58.7653 237.135L143.435 250.727C145.206 251.012 147.006 251.085 148.795 250.946L155.712 250.409L154.565 102.137L74.6112 99.3407C65.9522 99.0378 58.7653 105.872 58.7653 114.408V237.135Z" fill="url(#paint0_linear_4_9)"/>
<path d="M252.631 107.592V236.728C252.631 241.349 249.029 245.124 244.369 245.397L152.954 250.754C149.257 250.971 146.101 247.945 146.101 244.19V109.652C146.101 105.894 149.092 102.778 152.804 102.676L244.877 100.149C249.148 100.031 252.631 103.371 252.631 107.592Z" fill="url(#paint1_linear_4_9)"/>
<path d="M72.7502 99.439L146.102 102.861L244.877 100.149L143.609 96.8983L72.7502 99.439Z" fill="url(#paint2_linear_4_9)"/>
<path opacity="0.3" d="M244.747 100.152L172.638 102.132C168.536 102.245 165.187 105.653 165.192 109.782C165.199 116.673 166.366 123.795 169.445 130.666C179.71 153.573 202.655 154.418 207.43 175.444C211.407 192.963 197.321 200.5 195.833 222.886C195.442 228.767 195.958 235.093 197.735 241.875C198.671 245.445 202.04 247.877 205.712 247.662L245.41 245.336C249.483 245.097 252.631 241.799 252.631 237.762V107.721C252.631 103.429 249.089 100.033 244.747 100.152Z" fill="url(#paint3_linear_4_9)"/>
<path d="M178.143 249.278L212.037 247.291V101.05L178.143 101.981V249.278Z" fill="url(#paint4_linear_4_9)"/>
<path d="M179.67 249.188L212.037 247.291V101.05L179.67 101.939V249.188Z" fill="url(#paint5_linear_4_9)"/>
<path d="M118.306 97.4615L212.788 102.754H178.82L96.7209 98.5795L118.306 97.4615Z" fill="url(#paint6_linear_4_9)"/>
<path d="M164.281 92.9931C166.481 79.7147 168.089 70.0105 176.89 61.0489C180.601 57.2698 184.654 53.1432 191.301 52.0486C198.944 50.7899 208.7 53.758 211.373 59.908C213.911 65.7474 207.932 69.5527 210.472 76.2604C213.025 83.0016 220.465 82.8581 221.281 88.303C221.971 92.9147 217.401 98.1471 212.788 100.599C204.822 104.833 200.299 98.8761 184.739 99.8383C174.017 100.501 167.828 103.846 164.924 100.472C163.541 98.8661 163.677 96.6359 164.281 92.9931Z" fill="url(#paint7_linear_4_9)"/>
<g opacity="0.3">
<path d="M206.87 87.7959C197.263 84.176 192.339 76.2984 188.084 78.1619C184.303 79.818 186.61 86.732 182.165 92.3594C178.107 97.4983 170.663 98.7205 164.048 98.7256C164.215 99.3836 164.487 99.9642 164.924 100.472C167.828 103.846 174.016 100.502 184.739 99.8384C200.299 98.8762 204.822 104.833 212.788 100.599C217.021 98.3494 221.204 93.7602 221.335 89.4564C216.845 89.9316 211.852 89.6731 206.87 87.7959Z" fill="url(#paint8_linear_4_9)"/>
</g>
<path d="M106.252 60.1614C112.714 55.1368 119.526 60.7403 127.482 55.2176C135.54 49.624 133.199 40.6492 139.448 38.1045C146.708 35.1481 157.462 44.1688 162.608 49.8935C175.679 64.4345 181.818 90.2497 171.486 99.3312C167.609 102.74 156.629 101.335 134.827 98.3867C109.907 95.0167 106.321 92.603 103.936 89.4437C97.5087 80.9301 98.9359 65.8498 106.252 60.1614Z" fill="url(#paint9_linear_4_9)"/>
<g opacity="0.3">
<path d="M147.169 71.0631C143.577 69.9471 141.941 73.9962 134.559 75.6266C133.204 75.9258 120.187 78.6053 113.2 70.556C110.428 67.3625 109.127 63.0675 109.279 58.5133C108.259 58.8625 107.252 59.3844 106.252 60.1615C98.9363 65.8498 97.5091 80.9301 103.936 89.4438C106.321 92.6031 109.907 95.0167 134.827 98.3868C156.629 101.335 167.609 102.74 171.487 99.3313C172.008 98.8732 172.476 98.3619 172.915 97.8223C167.684 97.6524 162.196 96.4047 158.234 92.6129C150.589 85.2965 153.274 72.9603 147.169 71.0631Z" fill="url(#paint10_linear_4_9)"/>
</g>
<path d="M29.5964 263.62L69.3201 269.997C70.2847 270.152 71.2645 270.192 72.2388 270.117L76.0047 269.824L75.3802 189.095L29.8346 187.502C26.2202 187.376 23.2203 190.228 23.2203 193.791V256.232C23.2204 259.902 25.9203 263.03 29.5964 263.62Z" fill="url(#paint11_linear_4_9)"/>
<path d="M128.774 186.242V259.082C128.774 261.321 127.087 263.213 124.833 263.502L74.6095 269.932C72.5408 270.093 70.7721 268.482 70.7721 266.438V193.187C70.7721 191.141 72.4488 189.478 74.5255 189.465L128.774 186.242Z" fill="url(#paint12_linear_4_9)"/>
<path d="M21.482 194.275L72.6359 197.576V189.214L21.482 186.242V194.275Z" fill="#D8DEE8"/>
<path opacity="0.3" d="M81.3415 189.061C83.9155 190.044 86.833 191.669 89.3335 194.39C95.9095 201.545 94.7851 211.029 94.5271 213.206C93.1244 225.037 84.8015 226.382 85.3127 234.498C85.8918 243.694 96.794 245.425 100.558 256.285C101.74 259.693 101.923 263.157 101.51 266.488L124.833 263.502C127.087 263.213 128.774 261.322 128.774 259.082V186.243L81.3415 189.061Z" fill="url(#paint13_linear_4_9)"/>
<path d="M72.636 189.214V197.576L130.268 193.395V186.242L72.636 189.214Z" fill="#F4F7FA"/>
<path d="M21.482 186.242L72.6359 183.771L130.268 186.242L72.6359 189.214L21.482 186.242Z" fill="#D8DEE8"/>
<path opacity="0.3" d="M21.482 186.242L72.6359 183.771L130.268 186.242L72.6359 189.214L21.482 186.242Z" fill="#D8DEE8"/>
<path d="M14.8923 170.848C16.2063 168.875 20.6941 162.643 26.7315 162.705C30.376 162.743 33.5294 165.445 39.6874 170.848C44.9098 175.43 45.8273 177.133 48.0641 178.99C52.1039 182.345 59.4331 185.363 73.8644 182.952C71.0462 183.864 66.9076 184.968 61.802 185.483C55.3001 186.138 45.6439 187.112 36.5588 182.486C29.9145 179.102 26.8995 174.415 22.7106 175.579C21.7342 175.851 18.8029 176.965 15.653 178.766C14.6655 179.331 13.8706 179.84 13.3287 180.201C13.4317 179.919 13.6148 179.445 13.8871 178.88C16.0227 174.452 19.5039 173.028 19.1365 171.838C18.99 171.363 18.1981 170.82 14.8923 170.848Z" fill="url(#paint14_linear_4_9)"/>
<path d="M71.9657 185.532C68.4577 185.867 59.1663 186.276 50.968 180.47C39.9252 172.649 36.0758 157.243 39.5756 154.501C42.5312 152.186 50.2185 159.3 53.2018 156.702C56.0875 154.189 49.7344 146.802 52.7551 140.637C55.6903 134.646 66.6978 131.4 72.8592 135.135C78.938 138.82 78.498 148.209 77.997 158.903C77.4593 170.378 74.4534 179.556 71.9657 185.532Z" fill="url(#paint15_linear_4_9)"/>
<path d="M71.9658 185.532C67.9028 179.076 67.9511 174.85 68.8943 172.107C71.555 164.371 82.8211 164.128 85.5919 154.941C86.819 150.872 85.313 148.586 87.379 146.799C90.6263 143.99 99.1321 145.502 101.899 150.1C106.064 157.022 96.1306 169.128 99.218 171.447C100.704 172.563 103.159 169.872 106.366 171.007C109.906 172.259 112.32 177.45 111.504 180.25C110.345 184.224 101.531 187.303 71.9658 185.532Z" fill="url(#paint16_linear_4_9)"/>
<g opacity="0.3">
<path d="M130.268 186.242L80.6368 188.801C83.3714 189.749 86.6025 191.418 89.3336 194.39C89.8913 194.996 90.3895 195.621 90.8416 196.255L130.268 193.395V186.242Z" fill="#D8DEE8"/>
</g>
<path d="M95.1972 230.647C92.6229 229.386 105.351 211.657 98.8945 199.455C94.106 190.405 80.2488 187.199 78.6672 186.852C73.1482 185.64 68.4763 186.084 68.4697 185.698C68.4613 185.197 76.3233 184.319 84.9219 184.651C94.6296 185.026 100.352 185.323 105.473 189.273C109.549 192.417 111.261 196.346 112.397 198.956C118.166 212.2 113.215 226.74 111.504 226.685C110.098 226.64 110.049 216.722 107.707 216.562C106.059 216.449 105.344 221.303 100.112 226.905C98.3724 228.767 96.1718 231.124 95.1972 230.647Z" fill="url(#paint17_linear_4_9)"/>
<path opacity="0.3" d="M106.366 171.007C103.159 169.872 100.705 172.563 99.2181 171.447C96.1306 169.128 106.064 157.022 101.899 150.1C100.782 148.244 98.7273 146.902 96.4641 146.132C98.4356 150.08 98.3573 152.81 97.6545 154.721C95.918 159.443 90.3254 159.507 88.496 165.065C86.7521 170.363 90.713 173.711 88.7194 177.169C86.4451 181.114 78.5244 177.072 75.0932 180.69C73.9383 181.908 73.5372 183.651 73.5958 185.623C101.845 187.183 110.367 184.149 111.504 180.25C112.32 177.45 109.906 172.259 106.366 171.007Z" fill="url(#paint18_linear_4_9)"/>
<path opacity="0.3" d="M55.4358 171.887C56.5489 166.348 65.6398 164.837 65.7112 158.903C65.775 153.606 58.5666 151.981 56.7761 145.258C55.8994 141.966 56.6398 138.644 57.9808 135.679C55.6524 136.912 53.7445 138.618 52.7553 140.637C49.7348 146.801 56.0877 154.189 53.2021 156.702C50.2188 159.3 42.5314 152.186 39.5759 154.501C36.076 157.243 39.9254 172.649 50.9682 180.47C55.6964 183.818 60.7822 185.094 64.9184 185.515C56.4738 179.138 54.843 174.837 55.4358 171.887Z" fill="url(#paint19_linear_4_9)"/>
<path d="M289.425 270.565C289.249 270.565 289.072 270.539 288.899 270.485L245.125 256.927C244.202 256.641 243.688 255.673 243.977 254.763L265.395 187.286C265.627 186.553 266.32 186.058 267.102 186.074C267.881 186.089 268.557 186.608 268.762 187.348L291.118 268.384C291.286 268.993 291.103 269.645 290.641 270.083C290.309 270.397 289.872 270.565 289.425 270.565ZM247.848 254.147L286.891 266.24L266.951 193.963L247.848 254.147Z" fill="#D8DEE8"/>
<path d="M266.953 199.307C271.324 199.307 274.867 194.279 274.867 188.075C274.867 181.872 271.324 176.843 266.953 176.843C262.583 176.843 259.04 181.872 259.04 188.075C259.04 194.279 262.583 199.307 266.953 199.307Z" fill="#D8DEE8"/>
<path d="M264.313 199.307C268.683 199.307 272.226 194.279 272.226 188.075C272.226 181.872 268.683 176.843 264.313 176.843C259.942 176.843 256.399 181.872 256.399 188.075C256.399 194.279 259.942 199.307 264.313 199.307Z" fill="url(#paint20_linear_4_9)"/>
<path d="M259.714 140.672C264.569 141.967 274.3 145.282 282.65 153.973C294.665 166.478 295.603 181.558 296.003 187.992C296.329 193.227 298.062 220.202 278.469 234.37C270.825 239.897 262.805 241.52 258.101 242.078C261.915 242.363 265.728 242.648 269.543 242.933C274.051 242.268 280.53 240.661 286.831 236.363C308.526 221.567 305.751 190.125 305.311 185.866C304.642 179.395 302.873 162.278 288.585 150.252C281.578 144.354 274.155 141.865 269.543 140.734C266.266 140.713 262.99 140.693 259.714 140.672Z" fill="#D8DEE8"/>
<path d="M269.542 140.734C249.631 140.609 233.875 162.842 233.875 190.389C233.875 217.936 249.631 241.445 269.542 242.933C290 244.462 307 222.28 307 193.351C307 164.421 290 140.862 269.542 140.734ZM271.534 240.35C271.534 240.35 271.533 240.35 271.533 240.35C270.941 240.35 270.34 240.327 269.747 240.283C260.986 239.628 252.725 234.187 246.487 224.96C240.093 215.504 236.572 203.227 236.572 190.389C236.572 177.614 240.061 165.68 246.396 156.786C252.548 148.148 260.709 143.391 269.376 143.391L269.525 143.392C274.034 143.42 278.441 144.705 282.624 147.212C286.761 149.691 290.5 153.244 293.737 157.772C297.03 162.378 299.622 167.74 301.441 173.707C303.34 179.938 304.303 186.548 304.303 193.35C304.303 206.273 300.786 218.272 294.401 227.136C288.264 235.657 280.143 240.35 271.534 240.35Z" fill="#D8DEE8"/>
<path d="M233.875 190.389C233.875 164.779 247.493 143.762 265.408 141.033C264.15 140.843 262.874 140.742 261.584 140.734C241.673 140.609 225.916 162.842 225.916 190.389C225.916 217.936 241.672 241.445 261.584 242.933C263.607 243.084 265.596 243.003 267.538 242.707C248.584 239.851 233.875 217.005 233.875 190.389Z" fill="#D8DEE8"/>
<path d="M260.344 140.635C240.632 140.512 225.033 162.659 225.033 190.1C225.033 217.541 240.632 240.954 260.344 242.429C280.594 243.945 297.42 221.848 297.42 193.035C297.42 164.223 280.594 140.761 260.344 140.635ZM262.309 239.845C262.307 239.845 262.307 239.845 262.306 239.845C261.723 239.845 261.131 239.823 260.548 239.779C251.887 239.131 243.718 233.717 237.546 224.535C231.216 215.118 227.731 202.889 227.731 190.1C227.731 177.374 231.184 165.485 237.456 156.625C243.543 148.027 251.613 143.292 260.18 143.292L260.327 143.292C264.782 143.32 269.137 144.598 273.272 147.091C277.364 149.557 281.063 153.094 284.266 157.602C287.524 162.189 290.089 167.527 291.889 173.47C293.769 179.677 294.722 186.259 294.722 193.035C294.722 205.909 291.241 217.862 284.92 226.693C278.849 235.174 270.818 239.845 262.309 239.845Z" fill="url(#paint21_linear_4_9)"/>
<path d="M263.209 236.811C279.919 236.811 293.465 216.545 293.465 191.546C293.465 166.547 279.919 146.281 263.209 146.281C246.499 146.281 232.953 166.547 232.953 191.546C232.953 216.545 246.499 236.811 263.209 236.811Z" fill="white"/>
<path d="M220.774 198.575L180.662 186.21C179.638 185.894 178.521 186.212 177.825 187.018L165.076 201.798C163.889 203.175 164.427 205.293 166.133 205.956L205.585 221.292C206.709 221.729 207.991 221.369 208.712 220.414L222.121 202.663C223.221 201.207 222.532 199.117 220.774 198.575Z" fill="url(#paint22_linear_4_9)"/>
<path d="M220.24 214.283L178.421 210.156C177.352 210.051 176.324 210.585 175.808 211.513L166.352 228.525C165.472 230.109 166.433 232.077 168.24 232.387L210.023 239.555C211.213 239.759 212.395 239.151 212.906 238.072L222.398 218.019C223.177 216.374 222.074 214.464 220.24 214.283Z" fill="url(#paint23_linear_4_9)"/>
<path d="M195.508 220.742L157.965 202.129C157.006 201.654 155.851 201.79 155.032 202.474L140.018 215.02C138.62 216.188 138.802 218.365 140.376 219.292L176.779 240.73C177.817 241.341 179.141 241.191 180.01 240.364L196.164 224.991C197.489 223.73 197.154 221.558 195.508 220.742Z" fill="url(#paint24_linear_4_9)"/>
<path d="M173.964 211.254L133.145 221.119C132.102 221.371 131.314 222.213 131.142 223.257L127.994 242.404C127.701 244.187 129.274 245.726 131.082 245.424L172.896 238.437C174.088 238.238 174.996 237.276 175.112 236.091L177.264 214.066C177.44 212.259 175.753 210.822 173.964 211.254Z" fill="url(#paint25_linear_4_9)"/>
<path d="M248.326 225.908L219.243 196.015C218.5 195.252 217.366 195 216.363 195.375L197.958 202.263C196.244 202.904 195.679 205.016 196.848 206.407L223.898 238.59C224.669 239.507 225.968 239.801 227.068 239.307L247.504 230.13C249.18 229.377 249.6 227.219 248.326 225.908Z" fill="url(#paint26_linear_4_9)"/>
<path d="M276.449 229.276L255.8 193.211C255.273 192.29 254.237 191.769 253.17 191.887L233.607 194.063C231.785 194.266 230.706 196.173 231.488 197.807L249.592 235.593C250.108 236.67 251.292 237.272 252.482 237.062L274.59 233.165C276.404 232.845 277.354 230.857 276.449 229.276Z" fill="url(#paint27_linear_4_9)"/>
<path d="M269.009 209.883L229.535 195.668C228.527 195.304 227.396 195.57 226.662 196.343L213.22 210.514C211.968 211.834 212.404 213.975 214.076 214.716L252.749 231.869C253.851 232.358 255.149 232.058 255.916 231.137L270.159 214.03C271.328 212.626 270.74 210.506 269.009 209.883Z" fill="url(#paint28_linear_4_9)"/>
<path d="M126.968 134.316C132.586 135.814 143.846 139.65 153.508 149.707C167.411 164.177 168.497 181.626 168.96 189.072C169.337 195.129 171.342 226.343 148.67 242.738C139.825 249.133 130.544 251.011 125.101 251.657C129.514 251.987 133.928 252.317 138.341 252.647C143.557 251.876 151.055 250.018 158.347 245.044C183.45 227.923 180.239 191.54 179.73 186.612C178.956 179.124 176.909 159.317 160.376 145.401C152.267 138.577 143.678 135.697 138.341 134.387C134.55 134.364 130.759 134.34 126.968 134.316Z" fill="#D8DEE8"/>
<path d="M138.341 134.387C115.3 134.243 97.0681 159.969 97.0681 191.846C97.0681 223.722 115.3 250.925 138.341 252.647C162.013 254.415 181.685 228.748 181.685 195.272C181.685 161.797 162.013 134.536 138.341 134.387ZM140.646 249.657C140.645 249.657 140.645 249.657 140.644 249.657C139.959 249.657 139.264 249.631 138.577 249.58C128.44 248.822 118.881 242.526 111.662 231.849C104.264 220.908 100.19 206.701 100.19 191.845C100.19 177.062 104.227 163.253 111.557 152.962C118.675 142.967 128.119 137.462 138.148 137.462L138.321 137.462C143.538 137.495 148.637 138.983 153.478 141.883C158.265 144.751 162.592 148.863 166.338 154.103C170.148 159.433 173.147 165.637 175.251 172.542C177.449 179.753 178.563 187.4 178.563 195.272C178.563 210.225 174.494 224.109 167.106 234.367C160.004 244.227 150.607 249.657 140.646 249.657Z" fill="#D8DEE8"/>
<path d="M97.0675 191.845C97.0675 162.21 112.826 137.891 133.556 134.734C132.1 134.514 130.624 134.397 129.132 134.387C106.091 134.243 87.8588 159.969 87.8588 191.845C87.8588 223.722 106.091 250.925 129.132 252.647C131.472 252.821 133.774 252.727 136.021 252.384C114.088 249.079 97.0675 222.644 97.0675 191.845Z" fill="#D8DEE8"/>
<path d="M127.697 134.273C104.887 134.13 86.8367 159.758 86.8367 191.511C86.8367 223.265 104.887 250.357 127.697 252.064C151.129 253.818 170.599 228.248 170.599 194.908C170.599 161.568 151.129 134.419 127.697 134.273ZM129.97 249.074C129.969 249.074 129.969 249.074 129.967 249.074C129.292 249.073 128.608 249.048 127.933 248.997C117.911 248.247 108.458 241.982 101.316 231.357C93.9918 220.46 89.9583 206.31 89.9583 191.511C89.9583 176.785 93.9551 163.028 101.212 152.776C108.255 142.827 117.594 137.347 127.508 137.347L127.677 137.348C132.832 137.38 137.871 138.859 142.656 141.743C147.391 144.598 151.671 148.69 155.377 153.906C159.148 159.214 162.116 165.391 164.199 172.268C166.374 179.45 167.477 187.067 167.477 194.908C167.477 209.804 163.449 223.636 156.134 233.854C149.11 243.668 139.817 249.074 129.97 249.074Z" fill="url(#paint29_linear_4_9)"/>
<path opacity="0.15" d="M291.889 173.47C290.089 167.528 287.524 162.189 284.266 157.602C281.062 153.094 277.364 149.558 273.272 147.091C269.137 144.598 264.782 143.32 260.327 143.292L260.18 143.292C259.541 143.292 126.413 137.367 125.869 137.4L124.433 137.346C115.675 138.358 107.522 143.862 101.212 152.776C93.9549 163.028 89.9583 176.785 89.9583 191.511C89.9583 206.31 93.9918 220.46 101.316 231.357C108.458 241.982 117.911 248.247 127.933 248.997C128.608 249.048 129.292 249.073 129.967 249.074C129.968 249.074 129.969 249.074 129.97 249.074C133.073 249.074 261.726 239.845 262.306 239.845C262.307 239.845 262.307 239.845 262.309 239.845C270.818 239.845 278.849 235.174 284.92 226.693C291.241 217.862 294.722 205.909 294.722 193.035C294.722 186.26 293.769 179.677 291.889 173.47Z" fill="url(#paint30_linear_4_9)"/>
<path d="M179.73 186.611C178.956 179.124 176.909 159.317 160.376 145.401C152.267 138.577 143.678 135.696 138.341 134.387C134.55 134.363 130.759 134.34 126.968 134.316C132.586 135.814 143.846 139.65 153.508 149.707C167.412 164.177 168.497 181.626 168.96 189.072C169.337 195.129 171.342 226.343 148.67 242.738C141.768 247.728 134.601 249.968 129.199 251.018C129.067 251.195 128.935 251.373 128.806 251.552C128.72 251.673 128.636 251.794 128.551 251.915C131.814 252.159 135.078 252.403 138.341 252.646C143.558 251.876 151.055 250.017 158.347 245.044C183.45 227.922 180.239 191.54 179.73 186.611Z" fill="#D8DEE8"/>
<path d="M138.341 134.387C134.546 134.363 130.882 135.042 127.408 136.333C128.162 137.159 129.345 135.962 130.096 136.79C132.847 135.9 135.258 137.462 138.148 137.462L138.321 137.463C143.538 137.495 148.637 138.983 153.478 141.883C158.265 144.752 162.592 148.863 166.338 154.103C170.148 159.433 173.147 165.637 175.252 172.542C177.449 179.753 178.563 187.4 178.563 195.272C178.563 210.225 174.494 224.11 167.106 234.367C160.004 244.227 150.607 249.657 140.646 249.657H140.644C139.959 249.657 139.264 249.631 138.577 249.58C136.196 249.402 134.263 250.278 131.969 249.504C131.249 250.327 130.131 249.8 129.465 250.668C132.319 251.743 135.288 252.419 138.341 252.647C162.013 254.415 181.685 228.748 181.685 195.272C181.685 161.797 162.013 134.536 138.341 134.387Z" fill="#D8DEE8"/>
<path d="M127.697 134.272C126.988 134.268 126.285 134.288 125.587 134.333C126.504 135.346 127.427 136.354 128.349 137.364C133.269 137.515 138.079 138.984 142.656 141.743C147.391 144.598 151.671 148.69 155.377 153.906C159.148 159.214 162.116 165.391 164.199 172.268C166.374 179.45 167.477 187.067 167.477 194.908C167.477 209.804 163.449 223.636 156.134 233.854C149.298 243.404 140.315 248.778 130.763 249.06C130.082 249.867 129.423 250.691 128.806 251.553C128.674 251.737 128.544 251.922 128.415 252.108C151.525 253.292 170.599 227.906 170.599 194.908C170.598 161.568 151.128 134.419 127.697 134.272Z" fill="url(#paint31_linear_4_9)"/>
<path d="M131.217 246.364C151.547 246.364 168.027 222.841 168.027 193.824C168.027 164.806 151.547 141.283 131.217 141.283C110.888 141.283 94.4071 164.806 94.4071 193.824C94.4071 222.841 110.888 246.364 131.217 246.364Z" fill="white"/>
<path d="M154.672 289.691C154.464 289.691 154.254 289.66 154.049 289.597L102.139 273.519C101.044 273.18 100.435 272.031 100.777 270.952L126.176 190.934C126.452 190.065 127.273 189.478 128.2 189.497C129.124 189.514 129.926 190.13 130.168 191.008L156.68 287.105C156.879 287.827 156.662 288.6 156.114 289.119C155.721 289.492 155.202 289.691 154.672 289.691ZM105.368 270.223L151.668 284.563L128.021 198.853L105.368 270.223Z" fill="#D8DEE8"/>
<path d="M128.024 205.19C133.207 205.19 137.408 199.227 137.408 191.87C137.408 184.514 133.207 178.551 128.024 178.551C122.841 178.551 118.64 184.514 118.64 191.87C118.64 199.227 122.841 205.19 128.024 205.19Z" fill="#D8DEE8"/>
<path d="M124.893 205.19C130.076 205.19 134.277 199.227 134.277 191.87C134.277 184.514 130.076 178.551 124.893 178.551C119.71 178.551 115.509 184.514 115.509 191.87C115.509 199.227 119.71 205.19 124.893 205.19Z" fill="url(#paint32_linear_4_9)"/>
<path d="M194.123 289.824C194.123 289.824 186.585 293.2 186.462 293.739C186.339 294.278 191.31 293.558 193.339 293.636C195.368 293.714 197.038 293.123 196.854 292.276C196.67 291.429 195.96 289.299 195.96 289.299L194.123 289.824Z" fill="url(#paint33_linear_4_9)"/>
<path d="M193.847 287.085L194.306 290.429C194.306 290.429 195.499 290.847 196.301 290.353L196.643 286.685L193.847 287.085Z" fill="url(#paint34_linear_4_9)"/>
<path d="M229.349 287.165L230.226 288.552C230.471 288.94 230.544 289.407 230.427 289.849C230.12 291.002 229.508 293.25 229.241 293.836C228.877 294.634 223.999 295.108 223.999 295.108C223.999 295.108 223.563 294.505 224.576 293.776C225.589 293.048 226.24 292.934 226.598 291.858C226.955 290.784 227.194 287.743 227.194 287.743L229.349 287.165Z" fill="url(#paint35_linear_4_9)"/>
<path d="M225.699 283.641C226.02 283.893 227.586 288.578 227.586 288.578C227.586 288.578 228.094 289.217 229.057 288.274C230.02 287.331 229.493 287.851 229.493 287.851L229.312 283.243L225.699 283.641Z" fill="url(#paint36_linear_4_9)"/>
<path d="M189.7 219.905C189.302 229.879 189.286 240.716 189.868 252.293C190.524 265.33 191.842 277.38 193.503 288.302C194.121 288.322 194.77 288.325 195.448 288.306C195.905 288.294 196.349 288.272 196.778 288.243C197.64 285.978 198.659 282.999 199.571 279.442C200.53 275.701 201.109 272.346 201.521 269.137C202.973 257.839 201.272 256.853 202.45 248.481C203.493 241.065 204.977 240.776 206.719 230.248C208.609 218.825 207.202 217.111 206.518 216.492C203.605 213.856 196.763 215.65 189.7 219.905Z" fill="url(#paint37_linear_4_9)"/>
<path opacity="0.3" d="M206.518 216.492C203.74 213.978 197.386 215.5 190.676 219.337C198.396 227.553 199.237 232.883 198.312 236.342C197.266 240.251 194.086 241.377 194.098 245.651C194.113 250.903 198.925 252.295 198.823 257.853C198.755 261.528 196.641 261.49 196.141 266.03C195.55 271.401 198.313 273.252 197.418 277.226C197.033 278.935 195.934 281.169 192.806 283.471C193.031 285.102 193.262 286.718 193.504 288.303C194.121 288.322 194.77 288.326 195.448 288.307C195.905 288.294 196.349 288.272 196.777 288.243C197.639 285.978 198.658 283 199.571 279.442C200.53 275.701 201.109 272.346 201.521 269.137C202.973 257.839 201.272 256.854 202.45 248.481C203.493 241.066 204.977 240.776 206.718 230.248C208.609 218.824 207.202 217.111 206.518 216.492Z" fill="url(#paint38_linear_4_9)"/>
<path d="M194.481 219.737C201.128 229.319 208.297 241.243 214.709 255.517C219.554 266.303 223.068 276.431 225.648 285.456C225.997 285.616 226.82 285.933 227.873 285.796C229.308 285.609 230.168 284.706 230.393 284.455C231.443 277.984 231.328 272.504 230.971 268.55C230.743 266.017 230.339 261.801 228.701 256.595C226.866 250.764 225.604 250.436 223.21 244.267C220.725 237.864 221.327 236.266 218.948 228.252C217.97 224.961 216.334 220.062 213.634 214.202C207.25 216.047 200.865 217.892 194.481 219.737Z" fill="url(#paint39_linear_4_9)"/>
<path d="M163.043 151.532C163.043 151.532 161.753 150.012 160.931 148.879C160.109 147.746 156.319 144.594 156.319 144.594C156.319 144.594 156.047 145.113 156.866 145.916C157.685 146.719 159.4 148.089 159.026 148.693C158.652 149.296 157.573 149.844 158.385 150.95C159.197 152.057 160.548 151.26 161.267 152.146C161.987 153.032 162.725 154 162.725 154L163.043 151.532Z" fill="url(#paint40_linear_4_9)"/>
<path d="M163.224 149.935C162.364 150.999 161.503 152.063 160.642 153.126C161.743 157.816 164.088 164.884 169.542 171.749C175.323 179.026 187.652 189.924 195.328 186.351C200.006 184.174 206.322 176.701 204.052 173.099C201.871 169.635 192.429 171.272 185.944 169.829C179.588 168.415 171.338 163.857 163.224 149.935Z" fill="url(#paint41_linear_4_9)"/>
<path d="M222.488 177.597C222.488 177.597 227.518 194.462 224.402 200.951C221.286 207.44 211.351 200.314 211.351 200.314L222.488 177.597Z" fill="url(#paint42_linear_4_9)"/>
<path d="M221.558 177.617C221.558 177.617 226.587 194.482 223.471 200.971C220.356 207.46 210.42 200.334 210.42 200.334L221.558 177.617Z" fill="url(#paint43_linear_4_9)"/>
<path d="M206.849 171.361C200.388 171.245 195.413 171.453 192.662 174.282C189.757 177.27 192.831 180.506 192.355 188.169C191.627 199.901 184.116 202.925 183.809 214.817C183.706 218.824 184.466 222.081 185.043 224.04C186.751 226.044 189.535 228.864 193.604 231.184C199.524 234.561 202.899 233.878 211.341 235.96C225.149 239.366 226.467 243.748 233.249 242.479C240.102 241.196 246.011 235.363 245.213 232.247C244.735 230.381 241.974 230.972 238.718 228.18C234.521 224.581 236.03 221.028 232.814 217.133C228.195 211.539 222.012 215.153 218.074 210.303C214.09 205.397 215.409 195.533 218.555 190.104C220.61 186.558 221.433 182.437 223.166 178.728C223.31 178.42 223.474 177.916 223.383 177.293C223.036 174.909 218.963 173.699 215.879 172.814C211.176 171.464 207.38 171.37 206.849 171.361Z" fill="url(#paint44_linear_4_9)"/>
<path d="M200.56 171.233L201.824 170.819C201.824 170.819 202.195 172.51 206.293 172.635C208.565 172.586 210.006 171.3 210.006 171.3L210.89 171.906C210.89 171.906 209.033 174.296 205.997 174.301C202.078 174.308 200.56 171.233 200.56 171.233Z" fill="url(#paint45_linear_4_9)"/>
<path d="M201.597 165.773C201.251 163.923 202.304 162.334 202.535 161.992C203.504 160.56 203.736 160.373 204.155 160.148L204.736 159.863C204.736 159.863 204.769 159.853 204.804 159.845C205.168 159.753 206.374 159.825 206.613 159.898C207.376 160.132 207.915 163.33 207.269 167.725C207.3 168.07 207.331 168.415 207.362 168.76C209.099 168.523 209.601 168.687 209.69 168.916C209.884 169.412 208.674 172.312 207.019 172.883C204.944 173.599 202.054 171.732 201.88 171.057C201.81 170.783 201.822 171.018 203.235 170.212C203.365 169.808 203.769 168.714 203.899 168.31C203.6 168.12 201.853 167.136 201.597 165.773Z" fill="url(#paint46_linear_4_9)"/>
<path d="M203.965 164.285C204.348 163.854 204.906 164.341 204.854 164.938C204.803 165.534 204.159 166.101 203.601 165.932C203.043 165.763 203.449 164.864 203.965 164.285Z" fill="url(#paint47_linear_4_9)"/>
<path d="M265.466 144.775C257.038 140.078 243.104 146.517 236.795 154.436C233.863 158.115 232.902 161.668 228.557 163.319C225.254 164.574 219.494 165.024 215.502 162.327C214.999 161.987 212.959 160.54 210.044 158.824C208.759 158.068 207.501 157.374 205.978 157.61C205.592 157.67 204.302 157.862 203.747 158.898C203.297 159.738 203.495 160.887 203.947 161.617C204.218 162.053 204.385 162.056 204.465 162.372C204.689 163.262 203.203 164.151 203.436 164.561C203.602 164.854 204.402 164.474 204.675 164.822C204.974 165.202 204.175 165.865 204.134 167.074C203.553 167.797 203.482 169.161 203.851 170.838C204.395 173.304 205.273 175.169 206.21 176.486C210.725 182.828 213.954 187.364 218.705 188.962C224.995 191.078 228.44 186.191 241.168 181.554C258.597 175.207 264.931 179.711 269.963 173.66C276.248 166.104 274.215 149.651 265.466 144.775Z" fill="#26264F"/>
<g opacity="0.3">
<path d="M228.397 232.409C221.9 228.156 216.018 233.021 211.426 229.274C207.643 226.188 210.745 222.165 206.652 216.734C202.165 210.779 195.938 212.302 194.455 207.851C192.921 203.252 199.074 200.13 199.228 193.744C199.306 190.485 197.821 186.24 191.887 181.149C192.207 183.007 192.535 185.271 192.355 188.169C191.627 199.901 184.116 202.924 183.809 214.817C183.706 218.824 184.466 222.081 185.043 224.04C186.751 226.044 189.535 228.864 193.604 231.184C199.524 234.561 202.899 233.878 211.341 235.96C225.149 239.366 226.468 243.747 233.249 242.478C235.224 242.109 237.12 241.36 238.8 240.409C236.825 240.106 235.353 239.444 234.23 238.679C231.263 236.655 231.784 234.626 228.397 232.409Z" fill="url(#paint48_linear_4_9)"/>
</g>
</g>
<defs>
<filter id="filter0_d_4_9" x="0" y="0" width="326" height="316" filterUnits="userSpaceOnUse" color-interpolation-filters="sRGB">
<feFlood flood-opacity="0" result="BackgroundImageFix"/>
<feColorMatrix in="SourceAlpha" type="matrix" values="0 0 0 0 0 0 0 0 0 0 0 0 0 0 0 0 0 0 127 0" result="hardAlpha"/>
<feOffset dx="4" dy="4"/>
<feGaussianBlur stdDeviation="7.5"/>
<feComposite in2="hardAlpha" operator="out"/>
<feColorMatrix type="matrix" values="0 0 0 0 0.156863 0 0 0 0 0.156863 0 0 0 0 0.156863 0 0 0 0.25 0"/>
<feBlend mode="normal" in2="BackgroundImageFix" result="effect1_dropShadow_4_9"/>
<feBlend mode="normal" in="SourceGraphic" in2="effect1_dropShadow_4_9" result="shape"/>
</filter>
<linearGradient id="paint0_linear_4_9" x1="17.1994" y1="159.634" x2="119.833" y2="173.115" gradientUnits="userSpaceOnUse">
<stop stop-color="#AA80F9"/>
<stop offset="0.9964" stop-color="#6165D7"/>
</linearGradient>
<linearGradient id="paint1_linear_4_9" x1="154.248" y1="135.78" x2="255.44" y2="228.037" gradientUnits="userSpaceOnUse">
<stop offset="0.0036" stop-color="#E38DDD"/>
<stop offset="1" stop-color="#9571F6"/>
</linearGradient>
<linearGradient id="paint2_linear_4_9" x1="171.388" y1="56.1411" x2="156.666" y2="108.798" gradientUnits="userSpaceOnUse">
<stop offset="0.0036" stop-color="#E38DDD"/>
<stop offset="1" stop-color="#9571F6"/>
</linearGradient>
<linearGradient id="paint3_linear_4_9" x1="246.845" y1="110.654" x2="146.093" y2="283.369" gradientUnits="userSpaceOnUse">
<stop offset="0.0036" stop-color="#E38DDD"/>
<stop offset="1" stop-color="#9571F6"/>
</linearGradient>
<linearGradient id="paint4_linear_4_9" x1="182.295" y1="111.658" x2="222.576" y2="317.635" gradientUnits="userSpaceOnUse">
<stop stop-color="#FFC444"/>
<stop offset="0.3138" stop-color="#FBA94A"/>
<stop offset="0.9964" stop-color="#F36F56"/>
</linearGradient>
<linearGradient id="paint5_linear_4_9" x1="188.58" y1="175.675" x2="261.96" y2="164.66" gradientUnits="userSpaceOnUse">
<stop stop-color="#FF9085"/>
<stop offset="1" stop-color="#FB6FBB"/>
</linearGradient>
<linearGradient id="paint6_linear_4_9" x1="139.533" y1="102.884" x2="294.671" y2="79.5969" gradientUnits="userSpaceOnUse">
<stop stop-color="#FF9085"/>
<stop offset="1" stop-color="#FB6FBB"/>
</linearGradient>
<linearGradient id="paint7_linear_4_9" x1="218.193" y1="57.5292" x2="180.19" y2="97.6456" gradientUnits="userSpaceOnUse">
<stop stop-color="#FFC444"/>
<stop offset="0.3138" stop-color="#FBA94A"/>
<stop offset="0.9964" stop-color="#F36F56"/>
</linearGradient>
<linearGradient id="paint8_linear_4_9" x1="224.409" y1="63.4177" x2="186.406" y2="103.534" gradientUnits="userSpaceOnUse">
<stop stop-color="#FFC444"/>
<stop offset="0.3138" stop-color="#FBA94A"/>
<stop offset="0.9964" stop-color="#F36F56"/>
</linearGradient>
<linearGradient id="paint9_linear_4_9" x1="126.986" y1="73.2953" x2="229.435" y2="57.9168" gradientUnits="userSpaceOnUse">
<stop stop-color="#FFC444"/>
<stop offset="0.3138" stop-color="#FBA94A"/>
<stop offset="0.9964" stop-color="#F36F56"/>
</linearGradient>
<linearGradient id="paint10_linear_4_9" x1="128.179" y1="81.2403" x2="230.628" y2="65.8618" gradientUnits="userSpaceOnUse">
<stop stop-color="#FFC444"/>
<stop offset="0.3138" stop-color="#FBA94A"/>
<stop offset="0.9964" stop-color="#F36F56"/>
</linearGradient>
<linearGradient id="paint11_linear_4_9" x1="6.91282" y1="192.745" x2="67.8887" y2="239.837" gradientUnits="userSpaceOnUse">
<stop offset="0.0036" stop-color="#E38DDD"/>
<stop offset="1" stop-color="#9571F6"/>
</linearGradient>
<linearGradient id="paint12_linear_4_9" x1="122.464" y1="188.48" x2="66.4354" y2="284.527" gradientUnits="userSpaceOnUse">
<stop offset="0.0036" stop-color="#E38DDD"/>
<stop offset="1" stop-color="#9571F6"/>
</linearGradient>
<linearGradient id="paint13_linear_4_9" x1="125.686" y1="190.359" x2="69.6573" y2="286.406" gradientUnits="userSpaceOnUse">
<stop offset="0.0036" stop-color="#E38DDD"/>
<stop offset="1" stop-color="#9571F6"/>
</linearGradient>
<linearGradient id="paint14_linear_4_9" x1="36.6106" y1="171.174" x2="53.4246" y2="196.968" gradientUnits="userSpaceOnUse">
<stop stop-color="#FF9085"/>
<stop offset="1" stop-color="#FB6FBB"/>
</linearGradient>
<linearGradient id="paint15_linear_4_9" x1="58.6781" y1="153.931" x2="77.4505" y2="182.729" gradientUnits="userSpaceOnUse">
<stop stop-color="#FF9085"/>
<stop offset="1" stop-color="#FB6FBB"/>
</linearGradient>
<linearGradient id="paint16_linear_4_9" x1="84.7178" y1="164.511" x2="100.727" y2="189.071" gradientUnits="userSpaceOnUse">
<stop stop-color="#FF9085"/>
<stop offset="1" stop-color="#FB6FBB"/>
</linearGradient>
<linearGradient id="paint17_linear_4_9" x1="89.943" y1="193.667" x2="111.93" y2="227.396" gradientUnits="userSpaceOnUse">
<stop stop-color="#FF9085"/>
<stop offset="1" stop-color="#FB6FBB"/>
</linearGradient>
<linearGradient id="paint18_linear_4_9" x1="85.2632" y1="164.155" x2="101.273" y2="188.715" gradientUnits="userSpaceOnUse">
<stop stop-color="#FF9085"/>
<stop offset="1" stop-color="#FB6FBB"/>
</linearGradient>
<linearGradient id="paint19_linear_4_9" x1="53.0298" y1="157.613" x2="71.8022" y2="186.411" gradientUnits="userSpaceOnUse">
<stop stop-color="#FF9085"/>
<stop offset="1" stop-color="#FB6FBB"/>
</linearGradient>
<linearGradient id="paint20_linear_4_9" x1="251.092" y1="180.889" x2="276.347" y2="195.032" gradientUnits="userSpaceOnUse">
<stop stop-color="#D8DEE8"/>
<stop offset="0.9964" stop-color="white"/>
</linearGradient>
<linearGradient id="paint21_linear_4_9" x1="303.986" y1="154.174" x2="222.485" y2="227.644" gradientUnits="userSpaceOnUse">
<stop stop-color="#D8DEE8"/>
<stop offset="0.9964" stop-color="white"/>
</linearGradient>
<linearGradient id="paint22_linear_4_9" x1="164.439" y1="203.783" x2="222.651" y2="203.783" gradientUnits="userSpaceOnUse">
<stop stop-color="#D8DEE8"/>
<stop offset="1" stop-color="white"/>
</linearGradient>
<linearGradient id="paint23_linear_4_9" x1="166.022" y1="224.868" x2="222.651" y2="224.868" gradientUnits="userSpaceOnUse">
<stop stop-color="#D8DEE8"/>
<stop offset="1" stop-color="white"/>
</linearGradient>
<linearGradient id="paint24_linear_4_9" x1="139.073" y1="221.476" x2="196.981" y2="221.476" gradientUnits="userSpaceOnUse">
<stop stop-color="#D8DEE8"/>
<stop offset="1" stop-color="white"/>
</linearGradient>
<linearGradient id="paint25_linear_4_9" x1="127.959" y1="228.319" x2="177.276" y2="228.319" gradientUnits="userSpaceOnUse">
<stop stop-color="#D8DEE8"/>
<stop offset="1" stop-color="white"/>
</linearGradient>
<linearGradient id="paint26_linear_4_9" x1="196.232" y1="217.374" x2="249.07" y2="217.374" gradientUnits="userSpaceOnUse">
<stop stop-color="#D8DEE8"/>
<stop offset="1" stop-color="white"/>
</linearGradient>
<linearGradient id="paint27_linear_4_9" x1="231.23" y1="214.487" x2="276.796" y2="214.487" gradientUnits="userSpaceOnUse">
<stop stop-color="#D8DEE8"/>
<stop offset="1" stop-color="white"/>
</linearGradient>
<linearGradient id="paint28_linear_4_9" x1="212.498" y1="213.804" x2="270.767" y2="213.804" gradientUnits="userSpaceOnUse">
<stop stop-color="#D8DEE8"/>
<stop offset="1" stop-color="white"/>
</linearGradient>
<linearGradient id="paint29_linear_4_9" x1="178.197" y1="149.94" x2="83.8881" y2="234.955" gradientUnits="userSpaceOnUse">
<stop stop-color="#D8DEE8"/>
<stop offset="0.9964" stop-color="white"/>
</linearGradient>
<linearGradient id="paint30_linear_4_9" x1="283.228" y1="110.673" x2="106.098" y2="270.347" gradientUnits="userSpaceOnUse">
<stop stop-color="#AA80F9"/>
<stop offset="0.9964" stop-color="#6165D7"/>
</linearGradient>
<linearGradient id="paint31_linear_4_9" x1="180.379" y1="152.361" x2="86.0705" y2="237.376" gradientUnits="userSpaceOnUse">
<stop stop-color="#D8DEE8"/>
<stop offset="0.9964" stop-color="white"/>
</linearGradient>
<linearGradient id="paint32_linear_4_9" x1="109.215" y1="183.348" x2="139.164" y2="200.12" gradientUnits="userSpaceOnUse">
<stop stop-color="#D8DEE8"/>
<stop offset="0.9964" stop-color="white"/>
</linearGradient>
<linearGradient id="paint33_linear_4_9" x1="190.471" y1="278.113" x2="192.289" y2="301.6" gradientUnits="userSpaceOnUse">
<stop offset="0.0036" stop-color="#26264F"/>
<stop offset="1" stop-color="#444B8C"/>
</linearGradient>
<linearGradient id="paint34_linear_4_9" x1="195.305" y1="291.187" x2="194.975" y2="266.867" gradientUnits="userSpaceOnUse">
<stop stop-color="#AB316D"/>
<stop offset="1" stop-color="#792D3D"/>
</linearGradient>
<linearGradient id="paint35_linear_4_9" x1="225.861" y1="275.374" x2="227.679" y2="298.86" gradientUnits="userSpaceOnUse">
<stop offset="0.0036" stop-color="#26264F"/>
<stop offset="1" stop-color="#444B8C"/>
</linearGradient>
<linearGradient id="paint36_linear_4_9" x1="227.739" y1="290.746" x2="227.409" y2="266.425" gradientUnits="userSpaceOnUse">
<stop stop-color="#AB316D"/>
<stop offset="1" stop-color="#792D3D"/>
</linearGradient>
<linearGradient id="paint37_linear_4_9" x1="189.414" y1="251.788" x2="207.666" y2="251.788" gradientUnits="userSpaceOnUse">
<stop stop-color="#311944"/>
<stop offset="1" stop-color="#6B3976"/>
</linearGradient>
<linearGradient id="paint38_linear_4_9" x1="190.676" y1="251.789" x2="207.666" y2="251.789" gradientUnits="userSpaceOnUse">
<stop offset="0.0036" stop-color="#26264F"/>
<stop offset="1" stop-color="#444B8C"/>
</linearGradient>
<linearGradient id="paint39_linear_4_9" x1="194.481" y1="250.016" x2="231.224" y2="250.016" gradientUnits="userSpaceOnUse">
<stop stop-color="#311944"/>
<stop offset="1" stop-color="#6B3976"/>
</linearGradient>
<linearGradient id="paint40_linear_4_9" x1="157.654" y1="142.924" x2="168.107" y2="172.583" gradientUnits="userSpaceOnUse">
<stop stop-color="#AB316D"/>
<stop offset="1" stop-color="#792D3D"/>
</linearGradient>
<linearGradient id="paint41_linear_4_9" x1="183.661" y1="167.802" x2="201.934" y2="237.956" gradientUnits="userSpaceOnUse">
<stop stop-color="#FFC444"/>
<stop offset="0.3138" stop-color="#FBA94A"/>
<stop offset="0.9964" stop-color="#F36F56"/>
</linearGradient>
<linearGradient id="paint42_linear_4_9" x1="211.141" y1="190.856" x2="225.33" y2="190.542" gradientUnits="userSpaceOnUse">
<stop stop-color="#AA80F9"/>
<stop offset="0.9964" stop-color="#6165D7"/>
</linearGradient>
<linearGradient id="paint43_linear_4_9" x1="210.211" y1="190.876" x2="224.399" y2="190.562" gradientUnits="userSpaceOnUse">
<stop stop-color="#FFC444"/>
<stop offset="0.3138" stop-color="#FBA94A"/>
<stop offset="0.9964" stop-color="#F36F56"/>
</linearGradient>
<linearGradient id="paint44_linear_4_9" x1="197.933" y1="164.084" x2="216.205" y2="234.238" gradientUnits="userSpaceOnUse">
<stop stop-color="#FFC444"/>
<stop offset="0.3138" stop-color="#FBA94A"/>
<stop offset="0.9964" stop-color="#F36F56"/>
</linearGradient>
<linearGradient id="paint45_linear_4_9" x1="201.994" y1="166.019" x2="207.672" y2="174.752" gradientUnits="userSpaceOnUse">
<stop stop-color="#FF9085"/>
<stop offset="1" stop-color="#FB6FBB"/>
</linearGradient>
<linearGradient id="paint46_linear_4_9" x1="206.599" y1="162.93" x2="203.688" y2="174.883" gradientUnits="userSpaceOnUse">
<stop stop-color="#AB316D"/>
<stop offset="1" stop-color="#792D3D"/>
</linearGradient>
<linearGradient id="paint47_linear_4_9" x1="204.108" y1="162.151" x2="204.064" y2="173.32" gradientUnits="userSpaceOnUse">
<stop stop-color="#AB316D"/>
<stop offset="1" stop-color="#792D3D"/>
</linearGradient>
<linearGradient id="paint48_linear_4_9" x1="193.912" y1="165.132" x2="212.185" y2="235.285" gradientUnits="userSpaceOnUse">
<stop stop-color="#FFC444"/>
<stop offset="0.3138" stop-color="#FBA94A"/>
<stop offset="0.9964" stop-color="#F36F56"/>
</linearGradient>
</defs>
</svg>
