<svg width="57" height="61" viewBox="0 0 57 61" fill="none" xmlns="http://www.w3.org/2000/svg">
<path d="M8.67136 20.733C8.28495 22.2914 2.76317 42.6754 2.36094 45.5777C1.95909 48.4801 19.5143 54.5732 23.254 55.0929C26.9934 55.6124 32.927 39.2472 32.927 39.2472L35.0138 27.4488L8.67136 20.733Z" fill="#17B5B4"/>
<path d="M28.4674 29.5016C28.4674 29.5016 21.9275 52.4082 22.1066 54.4346C22.2857 56.461 40.7439 56.2981 42.8854 55.7324C45.3979 55.0687 49.7004 33.6023 50.1006 31.3118C50.5009 29.0214 28.4674 29.5016 28.4674 29.5016Z" fill="#199A9A"/>
<path d="M12.5095 24.6796L11.1941 26.3528L9.22275 26.1847L10.2315 27.9914L9.39432 29.9812L11.333 29.4245L12.7866 30.8223L12.9759 28.6719L14.7119 27.5458L12.8904 26.7734L12.5095 24.6796Z" fill="#F8D0B5"/>
<path d="M17.0743 37.2718L16.6929 35.1779L15.3779 36.8512L13.4062 36.683L14.4151 38.4892L13.5778 40.4795L15.5165 39.9224L16.9704 41.3207L17.1599 39.1698L18.8958 38.0441L17.0743 37.2718Z" fill="#F8D0B5"/>
<path d="M32.2868 39.6955L31.9059 37.6016L30.5909 39.275L28.6192 39.1068L29.628 40.9135L28.7908 42.9033L30.7294 42.3466L32.1834 43.7445L32.3728 41.594L34.1087 40.4679L32.2868 39.6955Z" fill="#F8D0B5"/>
<path d="M26.8059 29.6462L26.425 27.5524L25.1096 29.2256L23.1382 29.0575L24.1471 30.8638L23.3098 32.854L25.2485 32.2969L26.7024 33.6952L26.8919 31.5443L28.6274 30.4186L26.8059 29.6462Z" fill="#F8D0B5"/>
<path d="M20.8518 47.8139L20.4704 45.72L19.1554 47.3933L17.1842 47.2248L18.1926 49.0314L17.3554 51.0212L19.294 50.4645L20.748 51.8624L20.9374 49.7119L22.6734 48.5858L20.8518 47.8139Z" fill="#F8D0B5"/>
<path d="M36.2903 50.39L35.9093 48.2961L34.5939 49.9694L32.6226 49.8013L33.6315 51.6075L32.7943 53.5974L34.7329 53.0407L36.1869 54.4386L36.3763 52.2881L38.1121 51.1624L36.2903 50.39Z" fill="#F8D0B5"/>
<path d="M43.9364 44.3252L42.1149 43.5529L41.7336 41.4589L40.4186 43.1323L38.4473 42.9642L39.4558 44.7703L38.6184 46.7606L40.5572 46.2035L42.0111 47.6018L42.2005 45.4509L43.9364 44.3252Z" fill="#F8D0B5"/>
<path d="M37.4294 37.0289L39.368 36.4721L40.822 37.8701L41.0114 35.7196L42.7474 34.5935L40.9259 33.8212L40.5446 31.7272L39.2295 33.4006L37.2578 33.2323L38.2666 35.039L37.4294 37.0289Z" fill="#F8D0B5"/>
<path d="M8.40455 42.561L8.02325 40.467L6.70824 42.1404L4.73653 41.9721L5.74542 43.7784L4.9082 45.7682L6.84683 45.2115L8.30082 46.6094L8.49019 44.459L10.2261 43.3333L8.40455 42.561Z" fill="#F8D0B5"/>
<path d="M43.676 51.9332L41.7047 51.7651L42.7136 53.5713L41.8764 55.5612L43.6118 55.0625C44.1123 54.324 44.6535 53.0341 45.203 51.422L44.9912 50.2594L43.676 51.9332Z" fill="#F8D0B5"/>
<path d="M46.4041 37.3284L48.3428 36.7717L48.8803 37.2885C49.2285 35.6908 49.5206 34.2798 49.7348 33.2108L49.5193 32.0267L48.2043 33.7001L46.233 33.532L47.2417 35.3386L46.4041 37.3284Z" fill="#F8D0B5"/>
<g opacity="0.2">
<path d="M50.1006 31.3119C50.3607 29.8229 41.142 29.5049 34.6576 29.4648L35.0143 27.4485L8.67174 20.7331C8.5711 21.139 8.12208 22.8219 7.50652 25.1388C11.3626 27.3473 25.5327 32.9494 27.2519 33.6847C27.0307 34.5772 45.6286 35.4952 49.3201 35.2327C49.7307 33.2731 50.0116 31.8201 50.1006 31.3119Z" fill="#231F20"/>
</g>
<path d="M10.2071 13.6384C9.96996 14.5947 26.8851 21.8172 29.9383 22.8503C32.9912 23.8833 51.914 25.3507 52.591 24.3121C53.2681 23.2736 34.4238 17.116 31.5376 16.4003C28.651 15.6846 10.3547 13.043 10.2071 13.6384Z" fill="#1ACFCD"/>
<path d="M29.938 22.8502C28.7388 22.0935 11.8877 13.4232 10.2067 13.6383C8.52568 13.8535 6.88221 21.0102 7.09816 22.143C7.314 23.2763 25.8287 30.5858 27.8098 31.4334C29.7909 32.2805 32.9303 31.3436 32.9303 31.3436L29.938 22.8502Z" fill="#17B5B4"/>
<path d="M29.938 22.8502C28.6598 27.7113 28.0486 30.4699 27.8097 31.4334C27.5709 32.3968 49.2771 33.3907 50.4624 32.8952C51.6478 32.3997 52.8664 25.3415 52.5906 24.312C52.3153 23.2826 29.938 22.8502 29.938 22.8502Z" fill="#199A9A"/>
<path d="M8.99119 50.7375C8.67531 50.6592 8.48921 50.3152 8.57495 49.9694C8.59454 49.8904 10.684 41.5371 13.0679 33.1128C17.6754 16.8296 18.6941 16.7878 19.368 16.7595C21.3768 16.6765 29.5224 17.3774 29.8682 17.4074L29.9267 17.4125L29.983 17.43C32.0071 18.0648 42.1606 21.3152 43.2783 22.9602C43.5671 23.3855 44.1046 24.1766 40.0902 40.5033C38.1399 48.4344 36.0328 56.2745 36.0117 56.3531C35.9191 56.6972 35.5851 56.8886 35.2759 56.8213C34.9619 56.7354 34.7826 56.3868 34.8752 56.0427C37.9756 44.5184 42.7033 25.6435 42.2848 23.7124C41.5424 22.8107 35.3462 20.4676 29.665 18.6829C28.9263 18.6197 21.4835 17.9892 19.4648 18.0399C17.8359 19.5957 12.3341 39.7006 9.71771 50.2527C9.63235 50.5986 9.30668 50.8158 8.99119 50.7375Z" fill="#393663"/>
<path d="M30.7605 18.6499C30.611 18.6128 30.4717 18.5346 30.3554 18.4179C30.0999 18.1614 30.0086 17.7699 30.1165 17.3971C30.866 14.8075 32.9927 8.60865 36.5397 6.98075C37.9061 6.35396 39.3208 6.46612 40.7457 7.31494C42.0256 8.07782 42.6226 9.03267 42.5205 10.1531C42.3912 11.5759 40.7631 14.5658 31.3158 18.6012C31.1321 18.6791 30.9391 18.6942 30.7605 18.6499ZM30.9235 17.4081L30.9231 17.4084L30.9235 17.4081ZM38.9958 7.95902C38.3008 7.78669 37.6281 7.85448 36.9614 8.16016C34.0636 9.49012 32.1221 14.8799 31.4053 17.1997C37.2991 14.6248 41.1806 11.8515 41.3418 10.0807C41.3944 9.50239 40.9907 8.95273 40.1417 8.44652C39.7512 8.21455 39.3704 8.05189 38.9958 7.95902Z" fill="#393663"/>
<path d="M29.8765 18.8673C29.7093 18.8259 29.5546 18.7327 29.4291 18.5905L29.4293 18.5901C26.5897 15.3639 21.9545 9.49726 22.8099 6.45581C22.9746 5.87046 23.4151 5.09974 24.5789 4.75008C25.5413 4.46109 26.4327 4.61609 27.2274 5.21009C30.0356 7.30903 30.8406 14.6803 31.0563 17.7523C31.087 18.1899 30.8663 18.5959 30.4944 18.7877C30.2915 18.8922 30.0754 18.9167 29.8765 18.8673ZM25.8449 5.94481C25.5317 5.86715 25.2017 5.88168 24.8492 5.98738C24.1796 6.18841 24.0105 6.53719 23.9417 6.78193C23.4844 8.40794 25.7762 12.4282 29.8126 17.1197C29.5632 14.2574 28.7677 7.95357 26.5264 6.27794C26.3075 6.11394 26.081 6.00336 25.8449 5.94481Z" fill="#393663"/>
<path d="M37.5004 21.0173C37.3444 20.9786 37.1867 20.9386 37.0269 20.8972C33.6484 20.0216 30.5768 18.81 30.546 18.7979L29.0865 18.2197L30.5776 17.5953C31.0018 17.4173 41.0187 13.2707 45.1086 15.6964C46.0689 16.2659 46.6511 17.1412 46.8394 18.2985C47.0625 19.6668 46.556 20.4622 46.0922 20.8886C44.791 22.0846 41.9779 22.1275 37.5004 21.0173ZM32.5682 18.1798C37.1921 19.8303 43.6931 21.4463 45.3492 19.9235C45.5521 19.737 45.8059 19.3945 45.6725 18.5738C45.545 17.7897 45.1636 17.2193 44.5065 16.8298C43.0392 15.9584 40.2539 16.0122 36.4514 16.9818C34.9563 17.363 33.5721 17.8204 32.5682 18.1798Z" fill="#393663"/>
<path d="M29.5299 18.6472C28.9679 18.5078 26.4359 17.8617 23.8797 16.9148C19.7879 15.3994 17.6643 13.9006 17.3882 12.3327C17.285 11.7478 17.3845 10.864 18.4431 9.97533C19.373 9.19528 20.4289 8.90181 21.5816 9.10379C25.8536 9.84325 30.1253 17.3765 30.3052 17.6963L31.043 19.009L29.645 18.6753C29.6419 18.6745 29.6023 18.6651 29.5299 18.6472ZM21.5856 10.4236C21.5047 10.4035 21.424 10.3862 21.3437 10.3721C20.5207 10.2282 19.801 10.4266 19.1432 10.9789C18.4659 11.5473 18.5312 11.9176 18.5526 12.0398C18.8536 13.7499 24.1002 15.8367 28.4445 17.0329C27.0773 14.9336 24.2591 11.0865 21.5856 10.4236Z" fill="#393663"/>
<path d="M18.3806 32.3989C18.3346 32.3875 18.2892 32.37 18.2457 32.3454C17.9604 32.185 17.8588 31.7986 18.019 31.4824C18.4379 30.6546 18.5229 29.6784 18.6132 28.6446C18.6899 27.7623 18.7698 26.8495 19.0654 25.9657C19.7357 23.9617 21.5561 22.4065 23.4925 22.1837C23.6064 22.1705 23.7212 22.162 23.8358 22.1529C24.0614 22.1357 24.2746 22.1194 24.4604 22.066C24.9516 21.9247 25.3864 21.4937 25.8467 21.0374L26.0352 20.8514C27.5007 19.4196 28.8781 18.4169 30.2449 17.7853L30.4264 17.7014L30.6141 17.7484C34.4286 18.7067 37.4039 22.3354 37.8498 26.5732C37.8654 26.722 37.878 26.8714 37.891 27.0209C37.9227 27.3936 37.9526 27.7454 38.0285 28.071C38.1139 28.4356 38.2633 28.8 38.4219 29.1859C38.7239 29.9226 39.0661 30.7577 38.9468 31.7052C38.9024 32.0582 38.6036 32.3177 38.2794 32.2846C37.9559 32.2517 37.7284 31.9384 37.7733 31.5851C37.8471 30.9969 37.5987 30.3907 37.3357 29.7493C37.165 29.3332 36.9888 28.9033 36.8795 28.4368C36.7808 28.0159 36.7453 27.5977 36.7109 27.1931C36.6989 27.0527 36.6869 26.9124 36.6724 26.7723C36.287 23.1097 33.7564 19.9636 30.4875 19.0501C29.3073 19.6267 28.1015 20.5248 26.807 21.7889L26.6249 21.9685C26.099 22.4897 25.5029 23.0805 24.718 23.3065C24.4209 23.392 24.1397 23.4137 23.868 23.4342C23.7677 23.4419 23.6673 23.4496 23.5668 23.4612C22.0843 23.632 20.69 24.8227 20.1769 26.3573C19.9345 27.0821 19.8657 27.8732 19.7926 28.711C19.6947 29.8329 19.5936 30.9924 19.0524 32.0624C18.9164 32.3302 18.6366 32.4624 18.3806 32.3989Z" fill="#393663"/>
</svg>
