<svg width="104" height="107" viewBox="0 0 104 107" fill="none" xmlns="http://www.w3.org/2000/svg">
<path d="M101.258 84.5951C101.258 84.5951 93.3638 46.0605 87.9127 34.3649L11.1938 54.9885C11.1938 54.9885 17.3384 88.6154 22.2243 103.523C22.2243 103.523 76.909 93.0998 101.258 84.5951Z" fill="#FF4544"/>
<path d="M6.48308 43.3658C6.48308 43.3658 75.9717 22.7236 88.0407 23.8337C88.0407 23.8337 89.5546 27.4716 90.4794 31.3331C92.0277 37.7983 91.778 39.4391 91.778 39.4391C91.778 39.4391 27.1342 56.1704 10.2204 58.9712C10.2204 58.9712 7.15213 54.2064 6.48308 43.3658Z" fill="#FF453F"/>
<path d="M83.5338 64.6944C78.5844 65.8797 80.4886 73.8653 85.4458 72.6781C90.3952 71.4928 88.4916 63.507 83.5338 64.6944Z" fill="#F8D0B5"/>
<path d="M76.9837 81.5978C72.0343 82.7831 73.9379 90.7689 78.8958 89.5816C83.8443 88.3957 81.9409 80.4106 76.9837 81.5978Z" fill="#F8D0B5"/>
<path d="M76.1016 44.7235C71.1522 45.9089 73.0558 53.8947 78.0136 52.7073C82.9629 51.5213 81.0588 43.5364 76.1016 44.7235Z" fill="#F8D0B5"/>
<path d="M43.7634 58.2186C38.814 59.404 40.7176 67.3898 45.6754 66.2024C50.6247 65.0164 48.7213 57.0313 43.7634 58.2186Z" fill="#F8D0B5"/>
<path d="M34.9233 84.3369C29.9739 85.5222 31.8775 93.508 36.8353 92.3207C41.7847 91.1353 39.8804 83.1497 34.9233 84.3369Z" fill="#F8D0B5"/>
<path d="M17.5896 45.4853C12.6402 46.6706 14.5438 54.6564 19.5017 53.4691C24.4511 52.2837 22.5468 44.2981 17.5896 45.4853Z" fill="#F8D0B5"/>
<path d="M60.0392 34.9856C55.0898 36.1709 56.9934 44.1567 61.9512 42.9694C66.9006 41.7841 64.997 33.7983 60.0392 34.9856Z" fill="#F8D0B5"/>
<path d="M22.6246 75.8978C19.9248 76.5444 20.9634 80.8998 23.6674 80.2522C26.3672 79.6056 25.3286 75.2502 22.6246 75.8978Z" fill="#F8D0B5"/>
<path d="M68.6437 58.8452C65.9438 59.4918 66.9825 63.8472 69.6865 63.1996C72.3863 62.553 71.3477 58.1976 68.6437 58.8452Z" fill="#F8D0B5"/>
<path d="M40.9561 42.4747C38.2563 43.1212 39.2949 47.4766 41.999 46.829C44.6989 46.1832 43.6609 41.8269 40.9561 42.4747Z" fill="#F8D0B5"/>
<path d="M82.0419 30.3022C79.3421 30.9487 80.3807 35.3041 83.0847 34.6566C85.7845 34.01 84.7459 29.6546 82.0419 30.3022Z" fill="#F8D0B5"/>
<path d="M93.3673 77.5923C90.6675 78.2389 91.7061 82.5943 94.4101 81.9467C97.1099 81.3001 96.0713 76.9447 93.3673 77.5923Z" fill="#F8D0B5"/>
<path d="M28.5909 94.1052C25.8911 94.7518 26.9297 99.1072 29.6337 98.4596C32.3337 97.8138 31.2949 93.4576 28.5909 94.1052Z" fill="#F8D0B5"/>
<path d="M61.9831 75.2903C57.9334 76.2602 59.4913 82.7933 63.5473 81.8219C67.5971 80.8521 66.0399 74.3188 61.9831 75.2903Z" fill="#F8D0B5"/>
<path d="M52.4758 89.2342C48.4261 90.2041 49.9842 96.7379 54.0402 95.7666C58.0899 94.7967 56.5319 88.2629 52.4758 89.2342Z" fill="#F8D0B5"/>
<path d="M88.1631 51.8368C85.4633 52.4833 86.5019 56.8388 89.206 56.1912C91.9052 55.5455 90.8672 51.1892 88.1631 51.8368Z" fill="#F8D0B5"/>
<path d="M16.8669 61.2448C14.1671 61.8914 15.2059 66.2475 17.9099 65.5999C20.6096 64.9526 19.5709 60.5972 16.8669 61.2448Z" fill="#F8D0B5"/>
<g opacity="0.2">
<path d="M11.8858 58.6796C11.9604 59.0717 12.04 59.488 12.1256 59.9323L91.6734 45.0117C91.1274 43.1793 90.5841 41.4604 90.0493 39.8855C80.0289 42.4659 29.079 55.5232 11.8858 58.6796Z" fill="#231F20"/>
</g>
<path d="M59.8153 97.0816C59.2357 97.2204 58.6499 96.8458 58.5058 96.2442C58.4318 95.9354 51.0205 64.9734 43.7056 33.1066C43.5682 32.5081 43.9215 31.9147 44.4962 31.7771C44.4997 31.7762 44.5032 31.7754 44.5068 31.7745C45.0878 31.6416 45.6699 32.0225 45.8091 32.6253C53.1208 64.482 60.53 95.4321 60.6041 95.7417C60.7473 96.3427 60.3949 96.9428 59.8153 97.0816Z" fill="#393663"/>
<path d="M65.3592 96.0866C65.343 96.0905 65.3262 96.0945 65.3091 96.0979C64.7241 96.2079 64.1546 95.8054 64.0376 95.1988C63.9894 94.9448 58.992 69.3567 45.4576 32.6731C45.2437 32.0936 45.5221 31.4518 46.0793 31.2412C46.6327 31.0299 47.2619 31.3278 47.4759 31.908C61.0818 68.7844 66.1089 94.543 66.1584 94.799C66.2705 95.3882 65.9157 95.9534 65.3592 96.0866Z" fill="#393663"/>
<path d="M46.8253 32.9987C46.5509 33.0644 46.2588 33.0587 45.973 32.9743C45.3463 32.7893 44.8757 32.2651 44.7457 31.6046C43.8433 27.0166 42.2257 15.7616 46.6765 10.3548C48.3912 8.27204 50.7914 7.28422 53.8131 7.41977C56.5265 7.54116 58.2849 8.51658 59.038 10.3195C59.9945 12.6086 59.7922 18.5311 47.6906 32.4687C47.4555 32.7389 47.1531 32.9202 46.8253 32.9987ZM46.0714 30.9597C46.0709 30.9606 46.0709 30.9606 46.0714 30.9597V30.9597ZM51.4867 9.84282C50.2114 10.1482 49.1699 10.803 48.3326 11.8195C44.697 16.2359 45.9521 26.0978 46.6865 30.245C54.189 21.4618 58.2457 14.0241 57.0555 11.1756C56.6668 10.245 55.5571 9.73264 53.7564 9.65205C52.9295 9.6154 52.174 9.67823 51.4867 9.84282Z" fill="#393663"/>
<path d="M45.5616 34.0579C45.2549 34.1313 44.926 34.1151 44.6046 33.9999C37.3242 31.3778 24.9469 26.176 23.8465 20.8078C23.635 19.7754 23.721 18.2309 25.333 16.7409C26.666 15.5084 28.2473 15.0147 30.0315 15.2752C36.3356 16.1934 43.6985 26.8436 46.5716 31.3804C46.9807 32.0266 46.9538 32.8305 46.5046 33.4298C46.2589 33.755 45.9267 33.9704 45.5616 34.0579ZM45.2835 31.8903C45.2835 31.8903 45.2835 31.8903 45.2851 31.8907C45.2844 31.8909 45.2842 31.8902 45.2835 31.8903ZM28.3785 17.5347C27.8038 17.6723 27.2774 17.9651 26.7889 18.4164C25.8615 19.2738 25.8719 19.9476 25.9611 20.3794C26.5497 23.25 33.5881 27.5388 44.0236 31.4278C41.2684 27.2403 34.7964 18.2202 29.7646 17.4868C29.2723 17.4156 28.8118 17.4309 28.3785 17.5347Z" fill="#393663"/>
<path d="M59.7644 31.105C59.4781 31.1736 59.1879 31.2415 58.8932 31.309C52.6627 32.7355 46.657 33.3956 46.5967 33.4016L43.7411 33.7111L45.6614 31.5304C46.2083 30.91 59.1442 16.3348 67.8104 16.7027C69.8438 16.7893 71.5127 17.655 72.7697 19.2762C74.2559 21.193 74.0831 22.8285 73.6763 23.8631C72.5349 26.7651 67.9806 29.1373 59.7644 31.105ZM49.3888 30.7952C58.2865 29.5367 70.2198 26.6857 71.6721 22.9914C71.8502 22.5395 71.983 21.8052 71.0919 20.6561C70.2405 19.5576 69.1501 18.9951 67.7585 18.9362C64.6495 18.803 60.1492 21.1677 54.7412 25.7739C52.6147 27.5847 50.7316 29.4206 49.3888 30.7952Z" fill="#393663"/>
<path d="M44.8152 34.0035C43.7833 34.2506 39.1221 35.3352 34.1759 35.9779C26.2565 37.0075 21.5616 36.4482 19.8245 34.2696C19.1761 33.4568 18.6131 32.0191 19.6109 29.7876C20.4872 27.8284 21.9698 26.5122 24.0163 25.877C31.609 23.5298 44.7446 31.5655 45.3005 31.9086L47.5815 33.3178L45.0268 33.952C45.0206 33.9543 44.9475 33.9718 44.8152 34.0035ZM25.1052 27.899C24.9568 27.9345 24.8115 27.9739 24.6683 28.019C23.2077 28.4731 22.1962 29.3676 21.5762 30.7544C20.9378 32.1818 21.3481 32.6965 21.4833 32.8664C23.378 35.2435 33.6495 34.1431 41.7198 32.4172C37.7662 30.3163 30.011 26.7241 25.1052 27.899Z" fill="#393663"/>
</svg>
