<svg width="72" height="82" viewBox="0 0 72 82" fill="none" xmlns="http://www.w3.org/2000/svg">
<path d="M53.0805 79.2526C53.0805 79.2526 61.9246 49.5138 62.8836 39.4444L12.4403 27.7155C12.4403 27.7155 4.3023 53.4127 1.91542 65.5429C1.91542 65.5429 36.3946 76.905 53.0805 79.2526Z" fill="#DF649D"/>
<path d="M22.8168 30.128L19.851 29.4382C16.1945 32.8254 12.5769 36.2825 8.83309 39.5127C8.41177 40.9284 7.97327 42.4156 7.52919 43.9436C10.2798 41.6914 12.9548 39.2767 15.5966 36.8292C18.0022 34.6005 20.395 32.3371 22.8168 30.128Z" fill="#F8D0B5"/>
<path d="M9.41052 67.9345C15.1532 63.0258 20.4852 57.3148 25.8785 51.8323C29.6349 48.0138 33.4554 44.2769 37.5216 40.9927C39.5603 39.3463 41.6576 37.8161 43.8168 36.4577C44.3914 36.0966 44.9707 35.7508 45.5528 35.4144L41.9667 34.5805C40.5539 35.4852 39.1582 36.4461 37.789 37.503C29.4786 43.9195 22.24 52.2413 14.5709 59.7598C11.9647 62.3149 9.29034 64.7727 6.51502 67.0225C7.38168 67.2983 8.35216 67.6037 9.41052 67.9345Z" fill="#F8D0B5"/>
<path d="M33.9527 32.7176L30.5876 31.9349C23.6599 37.0166 16.9342 42.5498 10.3253 48.2958C8.5346 49.8529 6.75281 51.4259 4.97466 53.0054C4.56588 54.511 4.17264 55.9949 3.80489 57.4293C9.86174 52.0186 15.96 46.6809 22.2091 41.635C26.0616 38.5235 29.9779 35.5493 33.9527 32.7176Z" fill="#F8D0B5"/>
<path d="M48.9538 61.7489C52.9681 57.3906 57.0457 53.1223 61.1708 48.9261C61.5277 47.3355 61.8466 45.8231 62.1138 44.4304C61.2567 45.2904 60.3947 46.1429 59.5424 47.0102C52.3472 54.3307 45.3164 61.9025 38.4647 69.7111C36.9175 71.4745 35.3822 73.2533 33.8534 75.0407C34.7464 75.2763 35.6367 75.5075 36.522 75.7337C40.604 70.9901 44.7433 66.3201 48.9538 61.7489Z" fill="#F8D0B5"/>
<path d="M23.7765 68.282C27.5547 64.1456 31.3184 60.0084 35.274 56.1317C41.9768 49.5635 49.0319 43.5894 56.2099 37.8929L53.024 37.152C51.3354 38.5121 49.6537 39.8863 47.984 41.2851C43.7695 44.8166 39.6285 48.4891 35.5937 52.3446C31.5649 56.1943 27.7046 60.2781 23.8997 64.4631C22.0147 66.5364 20.1246 68.6102 18.1917 70.6161C19.0681 70.8773 19.9653 71.1428 20.8771 71.4104C21.852 70.3785 22.8165 69.3327 23.7765 68.282Z" fill="#F8D0B5"/>
<path d="M54.6368 73.8923C55.0226 72.5419 55.4616 70.991 55.9314 69.305C53.1473 71.8425 50.3634 74.3795 47.5793 76.917C47.168 77.2918 46.7565 77.6672 46.3452 78.042C47.4036 78.2631 48.4298 78.4663 49.4176 78.6488C51.1573 77.0633 52.8971 75.4778 54.6368 73.8923Z" fill="#F8D0B5"/>
<path d="M13.7927 17.9502C13.7927 17.9502 60.159 27.1966 66.5913 32.0976C66.5913 32.0976 66.1904 35.1676 65.3796 38.1934C64.0222 43.2593 63.3148 44.3255 63.3148 44.3255C63.3148 44.3255 21.0344 33.9892 10.5162 30.1782C10.5162 30.1782 10.4288 25.7865 13.7927 17.9502Z" fill="#DF649D"/>
<g opacity="0.2">
<path d="M11.4867 30.9244C11.3933 31.2256 11.2947 31.5444 11.1895 31.886L61.2612 48.5831C61.5855 47.1107 61.872 45.7189 62.1136 44.431C55.5638 42.8195 22.2848 34.5818 11.4867 30.9244Z" fill="#231F20"/>
</g>
<path d="M25.3677 73.8615C24.9929 73.761 24.7909 73.298 24.9172 72.8265C24.9821 72.5846 31.4849 48.325 38.3549 23.4635C38.4839 22.9965 38.8882 22.7008 39.2603 22.8005C39.2626 22.8011 39.2648 22.8017 39.2671 22.8023C39.6407 22.9073 39.8384 23.3735 39.7089 23.8441C32.8411 48.697 26.3407 72.948 26.2757 73.1905C26.1491 73.6613 25.7425 73.9619 25.3677 73.8615Z" fill="#393663"/>
<path d="M28.8414 75.0565C28.8309 75.0537 28.82 75.0508 28.8092 75.0473C28.4408 74.9247 28.2582 74.4477 28.402 73.9822C28.462 73.7874 34.4733 54.1236 39.4934 23.7575C39.5726 23.2778 39.9514 22.9225 40.3388 22.965C40.7247 23.0058 40.9762 23.4295 40.8968 23.9098C35.851 54.4357 29.7976 74.2293 29.7367 74.4257C29.5975 74.8777 29.2016 75.153 28.8414 75.0565Z" fill="#393663"/>
<path d="M39.8645 24.6713C39.4993 24.5734 39.2102 24.2697 39.0832 23.8346C38.9306 23.3112 39.0444 22.7027 39.38 22.2463C42.0765 18.5872 48.9725 10.0742 54.763 10.0438C56.9599 10.0328 58.756 11.237 60.0954 13.6267C61.2832 15.7458 61.4664 17.6651 60.6397 19.3297C58.0207 24.6045 45.4015 24.8458 40.0981 24.705C40.0171 24.7029 39.9392 24.6913 39.8645 24.6713ZM55.7464 11.931C55.384 11.8339 55.0042 11.7867 54.6053 11.789C49.505 11.8155 42.9415 19.9294 40.662 22.97C48.3169 23.1332 57.6863 22.08 59.4352 18.5587C59.9336 17.5548 59.7473 16.2626 58.8819 14.718C58.0223 13.1847 56.9897 12.2641 55.7464 11.931Z" fill="#393663"/>
<path d="M38.3245 24.4058C38.3227 24.4053 38.3208 24.4048 38.319 24.4043C33.0974 22.9653 20.8945 19.0536 20.3612 13.8214C20.2642 12.8701 20.491 11.4225 22.1213 9.92478C23.5656 8.59858 25.1563 8.07011 26.85 8.3541C32.592 9.31749 37.9453 19.5257 39.4477 22.6311C39.6351 23.0174 39.5944 23.5227 39.3435 23.9179C39.093 24.3137 38.6934 24.5046 38.3245 24.4058ZM38.1912 23.6391C38.1912 23.6391 38.1915 23.6398 38.1918 23.6405C38.1913 23.6404 38.191 23.6397 38.1912 23.6391ZM38.7845 22.6999C38.784 22.6998 38.784 22.6998 38.7845 22.6999V22.6999ZM26.949 10.1815C26.7988 10.1412 26.648 10.1082 26.4975 10.0832C25.1869 9.86324 24.0092 10.2528 22.8976 11.2739C21.6798 12.3922 21.7583 13.1613 21.7838 13.414C22.1007 16.5194 29.7318 20.0572 37.5407 22.347C35.767 18.939 31.3891 11.3712 26.949 10.1815Z" fill="#393663"/>
<path d="M16.9771 56.7929C16.615 56.6959 16.4103 56.256 16.5181 55.7937L18.4574 47.4666C18.8957 45.5851 19.4963 43.0082 21.1027 41.3269C21.7552 40.6439 22.4992 40.1823 23.2184 39.7354C24.117 39.1779 24.9654 38.651 25.4502 37.7833C25.8539 37.06 25.9801 36.1373 26.1136 35.1601C26.2494 34.167 26.3898 33.1401 26.829 32.1566C27.4048 30.8675 28.3279 30.0037 29.2203 29.1686C29.4137 28.988 29.6064 28.8079 29.7939 28.6239C30.3539 28.0749 30.8774 27.4782 31.4318 26.8462C32.3161 25.8378 33.2309 24.7952 34.2972 23.9742C36.187 22.519 38.56 22.1897 40.3482 23.1374C43.0267 24.559 44.7522 27.8719 44.7438 31.5757C44.743 31.8974 44.73 32.2244 44.7172 32.5527C44.6804 33.4644 44.6457 34.3258 44.9051 34.9827C45.0072 35.2412 45.1648 35.4907 45.3319 35.7544C45.5057 36.0291 45.6858 36.3134 45.835 36.6526C46.8044 38.8567 45.8146 41.5979 45.0198 43.8008C43.4389 48.1783 42.3785 52.7204 41.8637 57.3137C41.8094 57.7952 41.4479 58.1772 41.0565 58.1661C40.664 58.1535 40.3903 57.7559 40.4445 57.2749C40.9788 52.5103 42.0785 47.7978 43.7141 43.2694C44.4202 41.3137 45.2151 39.1102 44.5542 37.6075C44.4525 37.3767 44.3103 37.1516 44.1602 36.9139C43.9623 36.6015 43.7576 36.2781 43.6006 35.8785C43.1984 34.8602 43.2451 33.6948 43.2868 32.6667C43.2987 32.3657 43.3109 32.0649 43.3118 31.7702C43.3185 28.7362 41.8489 25.9143 39.6546 24.7499C38.3011 24.0322 36.4139 24.2991 34.9616 25.4184C34.0293 26.1362 33.2121 27.0675 32.347 28.0541C31.7945 28.6841 31.2227 29.3354 30.6136 29.9325C30.4163 30.1261 30.2137 30.3159 30.0104 30.5061C29.2229 31.243 28.4784 31.9394 28.0721 32.849C27.7612 33.545 27.6478 34.3743 27.5278 35.2521C27.3725 36.389 27.2118 37.5643 26.6074 38.6471C25.8794 39.9506 24.7968 40.6226 23.75 41.2723C23.0884 41.683 22.4643 42.0707 21.9638 42.5939C20.8319 43.7782 20.3301 45.6346 19.8344 47.7595L17.8952 56.0861C17.785 56.5612 17.3871 56.8801 17.0071 56.7992C16.9959 56.7974 16.9862 56.7954 16.9771 56.7929Z" fill="#393663"/>
</svg>
