<svg width="73" height="85" viewBox="0 0 73 85" fill="none" xmlns="http://www.w3.org/2000/svg">
<path d="M4.78812 30.4696C2.50828 29.2199 19.0173 19.633 24.4575 18.5632C29.8977 17.4935 59.0354 13.947 60.4229 17.5549C61.8103 21.1628 41.6005 36.7781 41.6005 36.7781L4.78812 30.4696Z" fill="#5B8E7D"/>
<path d="M41.4952 30.4932C41.4952 30.4932 43.6071 26.8557 46.1947 23.9213C48.7823 20.987 58.7964 16.1767 60.4235 17.5547C62.0505 18.9327 70.4875 64.1386 70.8666 67.2171C71.2457 70.2957 60.2058 73.9217 56.7699 74.84C53.3341 75.7584 46.7655 60.7447 46.7655 60.7447L41.4952 30.4932Z" fill="#5B8E7D"/>
<path d="M4.89883 29.4429C2.17086 31.0697 14.2313 78.0558 16.4777 80.2823C18.7233 82.5084 53.9528 76.607 56.7693 74.8401C59.5866 73.0737 47.7494 28.0549 46.1941 23.9215C44.8027 20.2223 6.71949 28.3573 4.89883 29.4429Z" fill="#719F91"/>
<path d="M33.6087 80.7522C33.1362 80.8451 32.6685 80.5168 32.5567 80.0102C32.5276 79.8776 29.5987 66.5966 26.8318 53.3229C21.1426 26.0348 21.618 25.4063 22.0367 24.8509C23.0928 23.4523 28.3557 20.1603 29.3998 19.5139L29.5592 19.4153L29.7441 19.3939C33.183 19.001 50.4849 17.1487 53.4168 19.2711C54.0812 19.7519 55.4623 20.7515 61.4197 46.4841C64.3237 59.0326 66.9195 71.4948 66.9457 71.6189C67.0532 72.1348 66.7497 72.6356 66.2691 72.7366C66.2656 72.7373 66.2621 72.738 66.2592 72.7386C65.782 72.8324 65.311 72.4969 65.2041 71.9842C57.8663 36.7074 53.4639 21.8766 52.4136 20.8153C50.7133 19.5874 38.4434 20.3321 30.1661 21.2679C27.9586 22.6404 24.4689 24.9579 23.562 25.9252C23.4789 29.2291 30.0507 60.3934 34.293 79.6212C34.4063 80.1359 34.1104 80.6411 33.6304 80.7485C33.6233 80.7493 33.6157 80.7508 33.6087 80.7522Z" fill="#393663"/>
<path d="M30.0472 21.2783C30.0419 21.2793 30.0372 21.2803 30.0325 21.2812C29.8856 21.3068 15.309 23.91 13.0355 24.4706C12.562 24.5957 12.0724 24.2672 11.949 23.7544C11.8263 23.2414 12.1138 22.7307 12.5912 22.6134C14.9184 22.0442 29.0908 19.51 29.6923 19.4022C30.1758 19.3162 30.6443 19.6666 30.7383 20.1851C30.8315 20.6993 30.5226 21.1848 30.0472 21.2783Z" fill="#393663"/>
<path d="M31.0841 21.124C30.6784 21.2038 30.2531 21.0205 30.0073 20.6519C29.7463 20.2614 29.7387 19.7402 29.988 19.3538C32.3237 15.763 40.471 3.99164 47.2608 3.34306C49.0103 3.17327 50.5466 3.73712 51.8269 5.01823C53.3432 6.53546 53.4075 8.01261 53.1942 8.98443C51.9097 14.8476 36.0042 19.7442 31.16 21.1052L31.1595 21.1053C31.1342 21.1129 31.1093 21.1191 31.0841 21.124ZM30.6651 19.2625C30.6646 19.2626 30.664 19.2627 30.6634 19.2628C30.6634 19.2628 30.6646 19.2626 30.6651 19.2625ZM46.9696 5.3136C42.63 6.16688 36.8555 12.6245 32.6636 18.6789C41.7896 15.9207 50.7175 11.8767 51.4561 8.50463C51.5553 8.05378 51.5764 7.34423 50.6246 6.39137C49.7313 5.49749 48.6995 5.12092 47.4684 5.2403C47.3043 5.25626 47.1376 5.28056 46.9696 5.3136Z" fill="#393663"/>
<path d="M31.1408 21.1187C31.0553 21.1355 30.9671 21.1411 30.877 21.1347L30.8753 21.1351C13.5819 19.8952 10.2672 16.1631 9.64445 14.6163C9.29613 13.751 9.1666 12.3748 10.525 10.7289C11.7135 9.28927 13.2558 8.55076 15.1086 8.52839C21.3544 8.45986 29.3608 16.7019 31.6664 19.23C31.9773 19.5709 32.0635 20.0648 31.8877 20.4883C31.7488 20.8243 31.4693 21.0541 31.1408 21.1187ZM14.2987 10.5207C13.3438 10.7084 12.546 11.2 11.8776 12.0101C10.964 13.1164 11.2029 13.7096 11.2813 13.9043C12.3151 16.4743 20.8564 18.3225 29.0175 19.0755C24.8003 14.7828 19.1173 10.3902 15.175 10.4338C14.869 10.4366 14.5774 10.4659 14.2987 10.5207Z" fill="#393663"/>
<path d="M18.1665 31.0724C18.7991 30.8971 19.5173 30.7239 20.0826 31.1002C20.6794 31.4971 20.8433 32.3275 20.9509 33.0633C21.2561 35.16 21.5579 37.2579 21.8562 39.356C21.8768 39.5013 21.8969 39.6527 21.8552 39.7901C21.7843 40.0233 21.561 40.1527 21.3543 40.258C17.951 41.9914 14.1626 42.8923 10.3523 42.8741C10.1142 42.8727 9.86403 42.8651 9.65615 42.7356C9.34025 42.5393 9.21382 42.1283 9.11545 41.7548C8.55487 39.6183 8.06872 37.4613 7.65892 35.2906C7.14166 32.5517 9.31932 32.8518 11.199 32.5644C13.5485 32.2042 15.8758 31.7068 18.1665 31.0724Z" fill="#F8D0B5"/>
<path d="M14.6524 33.9031C14.1145 34.0219 13.5773 34.151 13.0408 34.28C11.6682 34.6105 10.2491 34.9516 8.82788 35.0966L8.8662 35.4369C10.3079 35.2911 11.7367 34.9462 13.1192 34.6137C13.6539 34.4844 14.1886 34.3558 14.7249 34.2379C16.2272 33.9053 17.7651 33.6577 19.2998 33.4963L19.2603 33.1562C17.7141 33.318 16.1646 33.5685 14.6524 33.9031Z" fill="#393663"/>
<path d="M19.3807 36.7529L19.331 36.4136C16.1235 36.8602 12.9202 37.5417 9.81082 38.4441L9.90243 38.7739C12.9974 37.8756 16.1864 37.1957 19.3807 36.7529Z" fill="#393663"/>
<path d="M10.7499 40.9747L10.809 41.3122C11.583 41.1789 12.3572 41.0371 13.1312 40.8849C15.4503 40.4289 17.7651 39.8863 20.0367 39.2661L19.9497 38.9354C16.9277 39.7593 13.8314 40.4438 10.7499 40.9747Z" fill="#393663"/>
</svg>
