<svg width="155" height="159" viewBox="0 0 155 159" fill="none" xmlns="http://www.w3.org/2000/svg">
<path d="M110.458 153.892C110.458 153.892 130.24 105.374 132.717 88.3396L28.6874 53.1303C28.6874 53.1303 10.566 94.9067 5.02818 115.061C5.02818 115.061 75.9727 144.881 110.458 153.892Z" fill="#199A9A"/>
<path d="M56.8923 82.4523C58.9827 76.5682 61.0726 70.6828 63.1622 64.7984L58.4538 63.2049C50.8428 84.6329 43.2319 106.061 35.6219 127.489C37.1324 128.087 38.6751 128.696 40.2485 129.314C45.7963 113.693 51.3438 98.0723 56.8923 82.4523Z" fill="#1ACFCD"/>
<path d="M40.9606 77.8398C43.1268 71.7183 45.3738 65.6265 47.7067 59.5674L45.8391 58.9349C37.7508 79.958 30.7505 101.374 24.197 122.923C24.7991 123.166 25.4134 123.414 26.0361 123.665C30.709 108.292 35.5996 92.9885 40.9606 77.8398Z" fill="#1ACFCD"/>
<path d="M31.7155 71.0736C34.0573 66.1996 36.5571 61.4062 39.1922 56.685L34.4308 55.073C24.1755 73.6611 16.0157 93.3737 10.2704 113.819C9.9832 114.842 9.71513 115.87 9.44083 116.896C10.7309 117.43 12.2702 118.065 14.0411 118.792C18.4239 102.381 24.3637 86.3788 31.7155 71.0736Z" fill="#1ACFCD"/>
<path d="M70.1126 140.668C75.8344 124.378 82.0832 108.274 88.8772 92.3999C91.2344 86.8911 93.6631 81.414 96.1467 75.9613L91.4279 74.364C82.2225 94.592 73.8676 115.205 66.4212 136.145C66.0897 137.077 65.7682 138.014 65.4414 138.948C66.9977 139.525 68.5563 140.099 70.1126 140.668Z" fill="#1ACFCD"/>
<path d="M69.5725 90.0596C72.1639 83.2379 74.8012 76.4331 77.4786 69.644L75.593 69.006C67.1551 90.4108 59.1404 111.983 51.5602 133.707C52.182 133.946 52.8057 134.185 53.4317 134.424C58.6147 119.565 63.9846 104.771 69.5725 90.0596Z" fill="#1ACFCD"/>
<path d="M102.652 101.103C105.317 94.3542 108.048 87.633 110.832 80.932L108.945 80.2937C100.002 101.823 91.6725 123.605 83.974 145.609C84.61 145.83 85.2445 146.048 85.8756 146.265C91.1769 131.105 96.7539 116.041 102.652 101.103Z" fill="#1ACFCD"/>
<path d="M121.144 104.541C123.029 98.4726 124.897 92.399 126.755 86.3216L122.052 84.7302C115.258 106.953 108.283 129.121 101.118 151.228C102.747 151.725 104.332 152.193 105.863 152.631C111.047 136.629 116.154 120.603 121.144 104.541Z" fill="#1ACFCD"/>
<path d="M31.9656 36.736C31.9656 36.736 127.662 66.4599 140.762 76.8072C140.762 76.8072 139.782 81.9685 137.954 86.9315C134.893 95.2409 133.375 96.864 133.375 96.864C133.375 96.864 46.2038 66.4831 24.5783 56.7928C24.5783 56.7928 24.6092 49.2123 31.9656 36.736Z" fill="#199A9A"/>
<g opacity="0.2">
<path d="M26.7195 57.7296C26.5116 58.2189 26.2913 58.7388 26.057 59.294L129.075 102.938C129.819 100.502 130.481 98.1938 131.044 96.0505C117.542 91.3267 48.9341 67.2383 26.7195 57.7296Z" fill="#231F20"/>
</g>
<path d="M53.254 136.359C52.4817 136.074 52.0854 135.218 52.3702 134.444C52.5164 134.047 67.1774 94.2565 82.629 53.5397C82.9192 52.7748 83.7719 52.3866 84.5386 52.669C84.5433 52.6707 84.548 52.6724 84.5527 52.6742C85.3222 52.9661 85.7095 53.827 85.4181 54.5978C69.9717 95.3006 55.316 135.078 55.1694 135.475C54.884 136.247 54.0263 136.643 53.254 136.359Z" fill="#E32524"/>
<path d="M60.4 139.45C60.3784 139.442 60.3559 139.434 60.3337 139.425C59.5759 139.104 59.2203 138.229 59.541 137.471C59.6749 137.154 73.0928 105.121 84.9765 54.3851C85.1641 53.5835 85.9667 53.0852 86.7679 53.2738C87.568 53.4597 88.0668 54.2637 87.8793 55.0653C75.9344 106.069 62.4229 138.312 62.2871 138.632C61.9765 139.368 61.1422 139.723 60.4 139.45Z" fill="#E32524"/>
<path d="M85.7017 56.0674C84.9491 55.7902 84.3635 55.1813 84.1222 54.3955C83.8312 53.4496 84.0966 52.4369 84.8146 51.7519C90.5837 46.2614 105.296 33.6735 117.305 35.347C121.862 35.9835 125.527 38.5895 128.188 43.0992C130.548 47.0984 130.835 50.4544 129.04 53.0712C123.352 61.3635 97.1746 58.0179 86.1843 56.1951L86.1834 56.1947C86.0166 56.1674 85.8565 56.1244 85.7017 56.0674ZM119.252 38.8863C118.505 38.6112 117.72 38.4168 116.893 38.3019C106.316 36.8273 92.3121 48.828 87.4389 53.3791C103.304 55.9413 122.783 56.9222 126.581 51.3864C127.663 49.8082 127.339 47.53 125.62 44.615C123.911 41.721 121.814 39.8298 119.252 38.8863Z" fill="#E32524"/>
<path d="M84.0287 54.6147C83.2621 54.3323 82.6955 53.6686 82.5215 52.8276C81.164 46.2128 78.6809 30.0506 84.9117 22.8323C87.1233 20.2708 90.1676 19.0795 93.9601 19.2913C97.4828 19.4891 99.806 20.7997 100.868 23.1911C104.235 30.7762 91.9907 47.2038 86.5692 53.9146C86.0144 54.6022 85.1395 54.9002 84.2866 54.6926C84.1987 54.6709 84.1122 54.6454 84.0287 54.6147ZM84.2504 52.0396C84.2504 52.0396 84.2494 52.0392 84.2491 52.0402C84.2494 52.0392 84.2494 52.0392 84.2504 52.0396ZM96.2007 22.7126C95.6039 22.4928 94.8226 22.3254 93.7949 22.2687C90.9328 22.1087 88.7662 22.9305 87.1694 24.7806C82.0898 30.6646 84.0623 44.8943 85.1794 50.877C92.6819 41.3776 100.264 29.1772 98.1429 24.4009C97.9924 24.063 97.6261 23.2376 96.2007 22.7126Z" fill="#E32524"/>
<path d="M82.5202 55.1514C82.5165 55.15 82.5127 55.1486 82.509 55.1472C71.7514 51.1158 46.6382 40.7505 45.7852 31.5913C45.6312 29.9264 46.1708 27.5036 49.625 25.4137C52.6841 23.5629 56.0074 23.1276 59.5056 24.1209C71.3516 27.4716 81.9706 46.6442 84.9363 52.434C85.3059 53.1551 85.1956 54.0129 84.6563 54.6178C84.1174 55.2217 83.2794 55.431 82.5202 55.1514ZM83.5569 52.3543L83.5559 52.354L83.5569 52.3543ZM59.6232 27.2941C59.3126 27.1797 59.0025 27.0783 58.6921 26.9895C55.9841 26.2202 53.525 26.54 51.1685 27.9643C48.5901 29.5254 48.7146 30.8713 48.7552 31.3136C49.2617 36.7497 64.9136 45.1105 80.9952 51.3756C77.4834 44.9883 68.7714 30.6635 59.6232 27.2941Z" fill="#E32524"/>
<path d="M16.1999 79.2745C15.499 79.0164 15.0888 78.2696 15.2676 77.5266C15.4612 76.7262 16.2662 76.233 17.0676 76.4269C54.2501 85.3987 91.0855 97.2053 126.558 111.518C127.321 111.826 127.691 112.695 127.382 113.459C127.075 114.222 126.199 114.58 125.441 114.284C90.1071 100.024 53.4085 88.2623 16.3679 79.3247C16.3098 79.3118 16.2534 79.2942 16.1999 79.2745Z" fill="#E32524"/>
<path d="M12.3962 87.86C11.7544 87.6236 11.3392 86.9656 11.4353 86.2592C11.5461 85.4432 12.2979 84.8719 13.1139 84.9827C26.2759 86.7741 38.811 91.4826 50.9329 96.04C74.4375 104.873 98.7415 114.007 122.447 123.599C123.209 123.907 123.579 124.777 123.27 125.54C122.961 126.304 122.091 126.674 121.328 126.362C97.6577 116.784 73.3712 107.658 49.8844 98.8317C37.9154 94.3338 25.5401 89.6831 12.7127 87.9382C12.6021 87.923 12.4957 87.8966 12.3962 87.86Z" fill="#E32524"/>
<path d="M44.5183 54.1389C44.0135 53.9529 43.6274 53.4996 43.5544 52.9281C43.4501 52.1118 44.0271 51.3641 44.8434 51.2598L49.1368 50.7108C50.0916 50.5894 51.0791 50.4629 52.0716 50.384C56.1016 50.0609 60.1076 50.4974 63.9752 51.68C65.074 52.0154 66.1736 52.4151 67.2361 52.8C70.4371 53.9609 73.4608 55.0564 76.4703 54.5674C77.4487 54.4078 78.4726 54.0496 79.5563 53.6708C81.9714 52.8253 84.7057 51.8652 87.3195 53.2691L87.7067 53.4767L87.92 53.8611C88.4672 54.8491 89.4867 55.6978 91.1272 56.5301C93.9446 57.9599 97.0212 58.718 100.276 59.5205C101.365 59.7891 102.452 60.0565 103.529 60.3508C107.482 61.4316 112.446 63.1767 115.76 67.1395C116.289 67.771 116.205 68.7109 115.573 69.2392C114.94 69.7681 114 69.6837 113.472 69.0526C110.688 65.7264 106.278 64.1928 102.744 63.2288C101.69 62.941 100.626 62.6791 99.5626 62.4162C96.2866 61.6093 92.8986 60.7738 89.7769 59.1892C88.498 58.5413 86.7181 57.4946 85.5754 55.7449C85.566 55.7414 85.5566 55.738 85.5463 55.7342C84.1556 55.222 82.4696 55.8126 80.5418 56.4869C79.3845 56.8919 78.1869 57.3108 76.9493 57.5114C73.1757 58.125 69.6399 56.843 66.2214 55.6041C65.1458 55.2144 64.1312 54.8471 63.1036 54.5325C59.6465 53.4766 55.9132 53.0692 52.3095 53.3575C51.3863 53.4309 50.4781 53.5472 49.5153 53.67L45.2229 54.2194C44.9762 54.25 44.736 54.2191 44.5183 54.1389Z" fill="#E32524"/>
</svg>
