<svg width="360" height="240" viewBox="0 0 360 240" fill="none" xmlns="http://www.w3.org/2000/svg">
<g filter="url(#filter0_d_11_2187)">
<path fill-rule="evenodd" clip-rule="evenodd" d="M0 20L20.1558 24.6253C40.0108 29.2506 80.3225 38.5011 120.333 38.5011C160.344 38.5011 200.656 29.2506 240.667 24.6253C280.678 20 320.989 20 340.844 20H361V242.014H340.844C320.989 242.014 280.678 242.014 240.667 242.014C200.656 242.014 160.344 242.014 120.333 242.014C80.3225 242.014 40.0108 242.014 20.1558 242.014H0V20Z" fill="#8934F4" fill-opacity="0.7"/>
<path fill-rule="evenodd" clip-rule="evenodd" d="M0 26.9864L20.1558 31.6117C40.0108 36.237 80.3225 45.4876 120.333 45.4876C160.344 45.4876 200.656 36.237 240.667 31.6117C280.678 26.9864 320.989 26.9864 340.844 26.9864H361V249H340.844C320.989 249 280.678 249 240.667 249C200.656 249 160.344 249 120.333 249C80.3225 249 40.0108 249 20.1558 249H0V26.9864Z" fill="#8934F4"/>
</g>
<g filter="url(#filter1_d_11_2187)">
<path d="M33.0863 78.0736C33.0863 78.0736 27.2725 69.7488 25.5306 68.5481C20.5963 65.1472 15.6793 70.5225 19.7761 74.3677C21.3251 75.8214 33.236 79.1917 33.236 79.1917C33.236 79.1917 43.7675 73.4101 45.8161 70.4426C48.9925 65.8406 41.7583 61.7381 38.3903 66.1862C36.7506 68.3514 33.0863 78.0736 33.0863 78.0736Z" fill="#F26D7A"/>
<path d="M31.1797 77.8958C31.1797 77.8958 30.3006 73.5138 32.5658 73.1619C35.3293 72.7324 35.1568 77.3661 35.1568 77.3661" fill="#F26D7A"/>
<path d="M88.6574 88.2523C89.0338 91.7617 88.8193 95.8322 87.6049 96.7417C87.2719 96.9895 85.4186 97.407 82.517 97.9354C80.8779 98.2342 78.9 98.564 76.6766 98.9215C73.9644 99.3535 70.8831 99.8209 67.5893 100.302C65.7167 100.575 63.7713 100.853 61.7905 101.131C58.8305 101.544 55.7808 101.96 52.7418 102.364C50.8014 102.623 48.8678 102.875 46.9598 103.115C44.3211 103.457 41.7306 103.779 39.2616 104.074C38.8168 104.129 38.3759 104.182 37.939 104.236C36.7545 104.38 35.5997 104.515 34.4866 104.639C33.6962 104.73 32.929 104.819 32.1798 104.899C28.5833 105.303 25.4929 105.615 23.2141 105.79C20.7967 105.98 19.2913 106.024 19.0485 105.872C18.7082 105.657 18.3457 105.076 17.9965 104.27C17.2755 102.61 16.5938 99.9935 16.2132 97.673C15.8567 95.5053 15.7642 93.5913 16.148 92.9675C16.3974 92.5606 18.2483 92.0112 21.2013 91.3716C22.845 91.02 24.8314 90.6374 27.0767 90.2388C29.7901 89.7589 32.8817 89.2526 36.1953 88.7449C38.069 88.453 40.0129 88.1609 42.0039 87.8718C44.9578 87.4404 48.0098 87.0154 51.0636 86.6038C52.9959 86.3416 54.9328 86.0836 56.847 85.8336C59.9415 85.4356 62.9837 85.0544 65.8711 84.7074C67.8768 84.4686 69.8062 84.2448 71.6333 84.0395C75.0689 83.6576 78.1352 83.3395 80.6038 83.1243C83.2832 82.886 85.2696 82.7635 86.2814 82.7848C86.668 82.7899 86.9131 82.8187 87.0023 82.8732C87.7686 83.3301 88.3765 85.6297 88.6574 88.2523Z" fill="#1EA58E"/>
<path d="M27.0767 90.2389L23.2141 105.79C20.7967 105.98 19.2913 106.024 19.0485 105.872C18.7082 105.657 18.3457 105.076 17.9965 104.27L21.2012 91.3711C22.845 91.0205 24.8314 90.6374 27.0767 90.2389Z" fill="white"/>
<path d="M42.0043 87.8723L37.9391 104.237C36.7546 104.38 35.5998 104.515 34.4867 104.64C33.6963 104.731 32.9291 104.819 32.1799 104.9L36.1954 88.7454C38.0691 88.4534 40.013 88.1614 42.0043 87.8723Z" fill="white"/>
<path d="M56.8471 85.8341L52.7419 102.365C50.8014 102.623 48.8679 102.876 46.9599 103.116L51.064 86.6042C52.9959 86.3421 54.9328 86.0841 56.8471 85.8341Z" fill="white"/>
<path d="M71.6334 84.04L67.5894 100.303C65.7168 100.575 63.7714 100.853 61.7906 101.131L65.8712 84.7079C67.877 84.4695 69.8063 84.2453 71.6334 84.04Z" fill="white"/>
<path d="M86.2814 82.7848L82.517 97.9354C80.8778 98.2342 78.9 98.564 76.6765 98.9216L80.6037 83.1244C83.2832 82.886 85.2691 82.7635 86.2814 82.7848Z" fill="white"/>
<path d="M37.3792 90.0239L32.6167 90.6581L34.644 105.796L39.4065 105.162L37.3792 90.0239Z" fill="#F28C9C"/>
<path opacity="0.3" d="M88.6576 88.2503C82.8511 89.4475 76.9746 90.2301 71.0952 90.9912C60.0902 92.4217 49.0778 93.7966 38.062 95.1198C36.4731 95.3138 34.8801 95.504 33.2901 95.6899C27.6013 96.369 21.9057 97.027 16.2128 97.6759C15.8572 95.5033 15.7633 93.5934 16.1475 92.9695C17.7482 90.3661 85.2118 81.8009 87.0024 82.8732C87.7683 83.3307 88.3751 85.6313 88.6576 88.2503Z" fill="#654489"/>
<path d="M91.4347 79.8756C91.3236 82.0533 90.8856 83.9121 90.0153 84.5041C88.5516 85.4986 61.0123 89.4765 39.3695 92.1798C36.4443 92.5474 33.6268 92.888 30.9999 93.1983C21.2227 94.3434 14.0235 95.0265 13.4479 94.7012C12.6857 94.274 11.8607 92.3565 11.2216 90.108C10.2785 86.7989 9.74449 82.7842 10.4167 81.8166C10.9833 80.9982 18.6174 79.5098 28.9479 77.876C31.5756 77.4606 34.3777 77.0348 37.2842 76.6087C59.7612 73.3138 88.3465 69.9742 89.5578 70.6128C90.8195 71.279 91.6295 76.0652 91.4347 79.8756Z" fill="#1E8475"/>
<path d="M37.0433 74.8095L39.3695 92.1798C36.4444 92.5474 33.6268 92.888 30.9999 93.1983L28.6864 75.9225L37.0433 74.8095Z" fill="#F28C9C"/>
<path opacity="0.3" d="M91.4347 79.8756C91.3236 82.0533 90.8855 83.9121 90.0152 84.5041C87.6183 86.1297 15.3298 95.7569 13.4479 94.7012C12.6856 94.274 11.8607 92.3565 11.2215 90.108C38.1894 88.7408 64.9942 85.3193 91.4347 79.8756Z" fill="#654489"/>
</g>
<g filter="url(#filter2_d_11_2187)">
<path d="M160.972 78.9621C161.231 80.5499 164.252 101.494 164.991 104.332C165.73 107.17 182.071 106.227 185.267 105.306C188.463 104.384 187.244 87.0069 187.244 87.0069L184.604 75.3004L160.972 78.9621Z" fill="#726DAB"/>
<path d="M180.093 79.6562C180.093 79.6562 183.218 103.318 184.104 105.127C184.989 106.936 199.767 99.8622 201.281 98.5352C203.058 96.9784 198.661 75.4895 198.145 73.2188C197.628 70.9481 180.093 79.6562 180.093 79.6562Z" fill="#5F5A94"/>
<g opacity="0.2">
<path d="M198.145 73.2188C197.809 71.7426 190.283 74.9056 185.055 77.3005L184.604 75.2999L160.972 78.9621C161.04 79.3756 161.295 81.1022 161.648 83.4782C165.555 84.0768 178.996 83.9491 180.647 83.9852C180.795 84.8944 196.081 78.7693 198.952 77.1417C198.565 75.1733 198.259 73.7227 198.145 73.2188Z" fill="#231F20"/>
</g>
<path d="M159.61 71.8175C159.769 72.7919 176.009 73.1349 178.841 72.9463C181.673 72.7578 197.42 67.0194 197.585 65.8039C197.749 64.5884 180.348 65.9548 177.766 66.3746C175.184 66.7945 159.511 71.2109 159.61 71.8175Z" fill="#918FCC"/>
<path d="M178.841 72.9463C177.6 72.6955 160.882 70.9878 159.61 71.8175C158.337 72.6472 159.635 79.8897 160.223 80.8576C160.811 81.826 178.369 81.6497 180.271 81.6915C182.174 81.7328 184.354 79.6879 184.354 79.6879L178.841 72.9463Z" fill="#726DAB"/>
<path d="M178.841 72.9463C179.592 77.9265 180.111 80.7099 180.271 81.6915C180.432 82.6731 198.243 75.4524 199.015 74.549C199.786 73.6457 198.183 66.6537 197.585 65.8039C196.986 64.9541 178.841 72.9463 178.841 72.9463Z" fill="#5F5A94"/>
<path d="M172.208 106.623C171.925 106.669 171.65 106.42 171.592 106.068C171.579 105.987 170.202 97.4693 169.035 88.7753C166.781 71.9711 167.584 71.5503 168.116 71.2714C169.7 70.4411 176.504 68.035 176.793 67.9331L176.842 67.9159L176.893 67.9111C178.753 67.7396 188.104 66.9409 189.604 68.0448C189.992 68.3303 190.714 68.8612 193.461 85.4834C194.795 93.558 195.971 101.607 195.982 101.688C196.033 102.037 195.851 102.351 195.574 102.396C195.569 102.396 195.566 102.397 195.562 102.397C195.279 102.436 195.007 102.18 194.955 101.827C193.23 89.9939 190.124 70.7449 189.082 69.1139C188.155 68.5575 182.317 68.7119 177.097 69.1903C176.48 69.4088 170.266 71.6165 168.663 72.4205C167.923 74.4719 170.857 95.15 172.615 105.901C172.672 106.254 172.49 106.577 172.208 106.623Z" fill="#ED1C24"/>
<path d="M184.195 68.4223C181.056 68.9328 177.955 68.5849 177.727 68.5582L176.901 68.461L177.274 67.5864C177.817 66.3137 182.697 55.1636 186.993 55.5984C188.328 55.733 189.426 56.9198 190.26 59.1261C191.15 61.4799 191.165 63.4648 190.307 65.0261C189.176 67.0808 186.673 68.0192 184.195 68.4223ZM178.605 67.348C179.539 67.4083 181.131 67.4605 182.828 67.2931C186.239 66.9581 188.521 65.9055 189.43 64.2519C190.087 63.0564 190.052 61.5346 189.32 59.5999C188.672 57.8875 187.886 56.9729 186.983 56.8816C184.147 56.5957 180.296 63.6595 178.605 67.348Z" fill="#ED1C24"/>
<path d="M176.865 68.8932C175.617 69.0962 168.035 70.1502 165.134 66.3674C164.111 65.0329 163.775 63.284 164.136 61.1689C164.471 59.2112 165.21 58.0888 166.336 57.832C167.985 57.4547 170.341 59.0599 173.359 62.5929C175.534 65.1376 177.241 67.7359 177.313 67.8455L177.879 68.7106L177.028 68.8648C177.006 68.8694 176.95 68.8793 176.865 68.8932ZM166.68 59.0826C166.651 59.0872 166.624 59.093 166.596 59.0988C165.879 59.2625 165.409 60.0544 165.159 61.5194C164.87 63.2114 165.102 64.5193 165.868 65.5181C168.031 68.3406 173.714 67.9772 175.916 67.7158C173.7 64.5221 169.095 58.6898 166.68 59.0826Z" fill="#ED1C24"/>
<path d="M174.143 104.788C176.7 104.36 179.296 104.162 181.903 104.196C181.315 101.798 180.784 99.3842 180.309 96.9586C177.87 97.277 175.408 97.4365 172.937 97.4362C172.763 98.1331 173.917 104.826 174.143 104.788Z" fill="#F8D0B5"/>
<path d="M173.783 99.4302C175.827 99.2423 177.905 99.1184 179.959 99.0627C179.962 99.0626 179.965 99.0621 179.968 99.0616C180.011 99.0546 180.041 99.0084 180.037 98.9528C180.033 98.8937 179.99 98.847 179.942 98.8478C177.886 98.9041 175.805 99.028 173.758 99.2159C173.71 99.2298 173.678 99.272 173.684 99.3311C173.691 99.3897 173.735 99.4344 173.783 99.4302Z" fill="#3B515D"/>
<path d="M180.306 100.767C180.349 100.76 180.38 100.713 180.375 100.657C180.37 100.598 180.327 100.552 180.279 100.554C178.168 100.645 176.037 100.822 173.946 101.078C173.898 101.09 173.867 101.137 173.875 101.196C173.883 101.254 173.928 101.297 173.975 101.292C176.063 101.036 178.191 100.86 180.298 100.768C180.3 100.768 180.303 100.768 180.306 100.767Z" fill="#3B515D"/>
<path d="M180.719 102.499C178.613 102.511 176.506 102.743 174.454 103.187C174.407 103.197 174.379 103.252 174.39 103.311C174.402 103.369 174.446 103.401 174.496 103.398C176.538 102.956 178.636 102.726 180.732 102.713C180.736 102.713 180.739 102.713 180.743 102.712C180.785 102.706 180.815 102.66 180.812 102.606C180.809 102.547 180.766 102.499 180.719 102.499Z" fill="#3B515D"/>
</g>
<g filter="url(#filter3_d_11_2187)">
<path d="M273.229 65.2576C273.28 65.0175 269.775 63.0276 269.916 62.3763C270.056 61.725 272.874 62.6689 272.874 62.6689C272.874 62.6689 272.584 59.7803 273.437 59.7373C274.289 59.6942 275.44 61.5242 275.44 61.5242C275.44 61.5242 276.254 59.2118 277.268 59.3166C278.283 59.4214 279.21 62.2208 279.21 62.2208C279.21 62.2208 281.268 59.4972 282.33 59.6687C283.392 59.8402 282.619 63.1224 282.619 63.1224C282.619 63.1224 285.606 61.955 286.208 62.4231C286.809 62.8915 284.696 64.8683 284.696 64.8683C284.696 64.8683 287.916 64.5987 288.056 65.2507C288.197 65.9027 284.346 67.7892 284.346 67.7892" fill="#513069"/>
<path d="M329.286 102.416C328.226 106.705 327.225 109.968 326.654 110.34C326.002 110.762 316.464 109.029 304.598 106.595C302.498 106.163 300.322 105.711 298.112 105.243C290.013 103.534 281.421 101.637 274.125 99.9496C271.313 99.2963 268.7 98.6797 266.376 98.1127L266.373 98.1119C260.203 96.611 256.106 95.4872 255.991 95.166C255.729 94.4394 256.907 85.4091 258.32 77.2139C258.607 75.5485 258.901 73.9188 259.195 72.3972C259.237 72.1868 259.277 71.9793 259.318 71.7719C259.696 69.879 260.067 68.1822 260.418 66.8396C260.88 65.0574 261.302 63.9031 261.629 63.7386C261.638 63.7343 261.65 63.7307 261.663 63.7242C264.685 62.6061 330.922 77.9479 333.331 79.114C333.359 79.1262 333.379 79.1398 333.389 79.1481C333.579 79.3156 333.502 80.5811 333.242 82.5147C333.037 84.0338 332.723 85.9682 332.335 88.103C331.941 90.2458 331.48 92.5936 330.986 94.9371C330.441 97.5325 329.855 100.119 329.286 102.416Z" fill="#F28C9C"/>
<path d="M269.721 88.6928C270.669 86.9482 269.639 84.7745 267.419 83.8378C265.2 82.9011 262.631 83.5561 261.683 85.3007C260.734 87.0454 261.764 89.219 263.984 90.1557C266.204 91.0924 268.772 90.4375 269.721 88.6928Z" fill="#F26D7A"/>
<path d="M276.182 82.8372C278.288 83.2896 280.293 82.2825 280.659 80.5877C281.025 78.8929 279.614 77.1523 277.507 76.6999C275.4 76.2475 273.396 77.2546 273.03 78.9494C272.664 80.6442 274.075 82.3848 276.182 82.8372Z" fill="#F26D7A"/>
<path d="M286.858 98.9991C288.704 99.3954 290.46 98.5132 290.78 97.0286C291.101 95.544 289.865 94.0192 288.019 93.6229C286.174 93.2266 284.418 94.1088 284.097 95.5935C283.777 97.0781 285.013 98.6028 286.858 98.9991Z" fill="#F26D7A"/>
<path d="M295.003 84.7745C294.852 85.4721 294.028 85.8866 293.16 85.7004C292.293 85.5141 291.712 84.7978 291.863 84.1002C292.014 83.4026 292.839 82.9881 293.706 83.1743C294.573 83.3605 295.154 84.0768 295.003 84.7745Z" fill="#F26D7A"/>
<path d="M306.949 96.5333C309.013 96.9766 310.977 95.9898 311.336 94.3292C311.694 92.6687 310.311 90.9632 308.247 90.5199C306.183 90.0767 304.219 91.0635 303.861 92.724C303.502 94.3846 304.885 96.0901 306.949 96.5333Z" fill="#F26D7A"/>
<path d="M310.877 82.6241C310.684 83.5198 309.624 84.0519 308.511 83.8129C307.398 83.5739 306.652 82.654 306.845 81.7583C307.039 80.8625 308.098 80.3304 309.211 80.5694C310.324 80.8085 311.07 81.7283 310.877 82.6241Z" fill="#F26D7A"/>
<path d="M324.976 91.9991C326.651 92.3588 328.244 91.558 328.535 90.2105C328.826 88.863 327.704 87.4791 326.029 87.1194C324.354 86.7597 322.761 87.5605 322.47 88.908C322.179 90.2555 323.301 91.6394 324.976 91.9991Z" fill="#F26D7A"/>
<path d="M317.224 104.656C319.048 105.048 320.784 104.176 321.101 102.708C321.417 101.241 320.196 99.7338 318.371 99.342C316.547 98.9503 314.811 99.8224 314.495 101.29C314.178 102.757 315.4 104.265 317.224 104.656Z" fill="#F26D7A"/>
<path d="M304.598 106.595C304.766 106.35 304.886 106.076 304.951 105.778C305.278 104.261 304.017 102.705 302.13 102.3C300.244 101.895 298.448 102.794 298.121 104.312C298.053 104.625 298.055 104.937 298.112 105.243L304.598 106.595Z" fill="#F26D7A"/>
<path d="M274.124 99.9496C271.312 99.2963 268.7 98.6797 266.376 98.1127C267.485 97.4581 268.963 97.2131 270.482 97.5394C272.093 97.8851 273.401 98.8022 274.124 99.9496Z" fill="#F26D7A"/>
<path d="M263.673 75.5085C263.328 77.1028 261.442 78.0508 259.46 77.6252C259.049 77.5369 258.665 77.3957 258.32 77.2136C258.645 75.3185 258.983 73.4666 259.318 71.7715C259.762 71.7248 260.23 71.7479 260.707 71.8504C262.689 72.2759 264.017 73.9143 263.673 75.5085Z" fill="#F26D7A"/>
<path d="M272.162 71.5515C273.737 71.8897 275.236 71.1367 275.509 69.8696C275.783 68.6025 274.728 67.3011 273.153 66.9629C271.577 66.6247 270.079 67.3777 269.805 68.6448C269.532 69.9119 270.587 71.2132 272.162 71.5515Z" fill="#F26D7A"/>
<path d="M298.873 80.9167C301.639 81.5106 304.271 80.1884 304.751 77.9635C305.231 75.7386 303.379 73.4536 300.613 72.8597C297.847 72.2658 295.216 73.588 294.735 75.8128C294.255 78.0377 296.108 80.3228 298.873 80.9167Z" fill="#F26D7A"/>
<path d="M317.869 83.9299C318.566 84.0796 319.229 83.7463 319.351 83.1854C319.472 82.6245 319.005 82.0484 318.307 81.8987C317.61 81.7489 316.947 82.0823 316.826 82.6432C316.704 83.2041 317.171 83.7802 317.869 83.9299Z" fill="#F26D7A"/>
<path d="M329.286 102.416C327.159 101.613 325.831 99.7061 326.234 97.8432C326.64 95.9596 328.681 94.7605 330.986 94.9371C330.441 97.5325 329.855 100.119 329.286 102.416Z" fill="#F26D7A"/>
<path d="M318.361 94.6734C319.147 94.8423 319.896 94.4663 320.032 93.8335C320.169 93.2006 319.642 92.5507 318.855 92.3818C318.069 92.2129 317.32 92.5889 317.184 93.2217C317.047 93.8546 317.574 94.5045 318.361 94.6734Z" fill="#F26D7A"/>
<path d="M298.055 91.9825C297.946 92.4877 297.349 92.7882 296.721 92.6533C296.093 92.5184 295.672 91.9995 295.781 91.4941C295.89 90.9889 296.487 90.6885 297.116 90.8234C297.744 90.9583 298.165 91.4771 298.055 91.9825Z" fill="#F26D7A"/>
<path d="M281.26 88.883C281.151 89.3908 280.55 89.6927 279.918 89.5571C279.287 89.4216 278.864 88.8998 278.974 88.392C279.083 87.8842 279.684 87.5822 280.316 87.7178C280.947 87.8534 281.37 88.3748 281.26 88.883Z" fill="#F26D7A"/>
<path d="M278.209 95.4199C278.111 95.8728 277.576 96.142 277.013 96.0212C276.45 95.9003 276.072 95.4349 276.17 94.9821C276.268 94.5289 276.804 94.2599 277.367 94.3808C277.93 94.5017 278.307 94.9667 278.209 95.4199Z" fill="#F26D7A"/>
<path d="M263.308 93.9652C263.207 94.4332 262.654 94.7113 262.072 94.5864C261.49 94.4615 261.101 93.9808 261.202 93.5129C261.303 93.0449 261.856 92.7668 262.438 92.8917C263.02 93.0163 263.409 93.497 263.308 93.9652Z" fill="#F26D7A"/>
<path d="M280.496 68.1639L275.586 67.1095L268.526 99.8069L273.436 100.861L280.496 68.1639Z" fill="#513069"/>
<path opacity="0.3" d="M332.335 88.1027L259.195 72.3969C259.236 72.1865 259.277 71.979 259.318 71.7716C259.696 69.8787 260.067 68.1819 260.418 66.8393C260.88 65.0571 261.302 63.9028 261.629 63.7383C261.638 63.734 261.65 63.7304 261.663 63.7239L333.331 79.1137C333.359 79.1259 333.379 79.1395 333.389 79.1478C333.579 79.3153 333.502 80.5807 333.242 82.5144C333.037 84.0338 332.723 85.9679 332.335 88.1027Z" fill="#654489"/>
<path d="M260.002 61.4056C258.056 62.1533 258.9 66.5109 258.9 66.5109C258.9 66.5109 333.753 82.79 334.772 82.8034C335.791 82.8167 336.345 77.3202 335.583 77.2247C335.075 77.1611 261.717 60.7465 260.002 61.4056Z" fill="#F26D7A"/>
<path opacity="0.3" d="M276.853 85.0364L271.943 83.9819L271.252 87.1823L276.162 88.2367L276.853 85.0364Z" fill="#654489"/>
<path d="M257.152 78.1636L331.644 95.8857L330.984 98.9399L256.777 81.796L257.152 78.1636Z" fill="#513069"/>
<path d="M282.211 65.0162L275.317 63.5358L273.865 70.2578L280.76 71.7382L282.211 65.0162Z" fill="#513069"/>
</g>
<g filter="url(#filter4_d_11_2187)">
<path d="M77.5554 166.367C77.1903 167.841 72.0016 187.131 71.6022 189.872C71.203 192.612 86.624 198.055 89.9209 198.482C93.2174 198.908 98.7091 183.396 98.7091 183.396L100.732 172.249L77.5554 166.367Z" fill="#FF4544"/>
<path d="M93.3393 186.039L74.5673 177.739C74.4562 178.166 74.3453 178.594 74.2346 179.02L93.0205 187.327L93.3393 186.039Z" fill="#F8D0B5"/>
<path d="M92.4681 189.558L73.6619 181.242C73.5507 181.677 73.441 182.105 73.3344 182.525L92.1497 190.845L92.4681 189.558Z" fill="#F8D0B5"/>
<path d="M91.5967 193.076L72.7734 184.753C72.6618 185.201 72.5554 185.632 72.4556 186.041L91.2779 194.363L91.5967 193.076Z" fill="#F8D0B5"/>
<path d="M76.0665 172.023L94.7633 180.29L95.0822 179.002L76.4041 170.743C76.2964 171.152 76.1835 171.579 76.0665 172.023Z" fill="#F8D0B5"/>
<path d="M90.7253 196.594L71.9248 188.282C71.803 188.821 71.7089 189.265 71.6499 189.588L90.4064 197.882L90.7253 196.594Z" fill="#F8D0B5"/>
<path d="M94.2107 182.521L75.4826 174.24C75.3722 174.66 75.2603 175.087 75.1467 175.52L93.8919 183.808L94.2107 182.521Z" fill="#F8D0B5"/>
<path d="M94.9161 174.293C94.9161 174.293 88.7894 195.976 88.917 197.881C89.0445 199.787 105.358 199.323 107.259 198.754C109.49 198.087 113.617 177.798 114.006 175.634C114.394 173.47 94.9161 174.293 94.9161 174.293Z" fill="#E32524"/>
<path d="M110.313 191.569C110.432 191.149 110.55 190.72 110.668 190.284L90.9134 188.988C90.7999 189.423 90.6893 189.852 90.5808 190.274L110.313 191.569Z" fill="#D1AF99"/>
<path d="M92.4418 183.245L112.101 184.536C112.202 184.101 112.302 183.67 112.398 183.247L92.7912 181.961C92.6765 182.381 92.56 182.81 92.4418 183.245Z" fill="#D1AF99"/>
<path d="M111.248 188.055C111.356 187.627 111.463 187.197 111.568 186.768L91.8415 185.473C91.7269 185.901 91.6123 186.331 91.4987 186.759L111.248 188.055Z" fill="#D1AF99"/>
<path d="M109.231 195.074C109.37 194.67 109.511 194.241 109.652 193.793L90.0178 192.504C89.9073 192.952 89.8024 193.383 89.7046 193.792L109.231 195.074Z" fill="#D1AF99"/>
<path d="M93.402 179.733L112.896 181.012C112.995 180.564 113.087 180.133 113.175 179.723L93.7567 178.448C93.6435 178.856 93.5249 179.286 93.402 179.733Z" fill="#D1AF99"/>
<path d="M107.579 198.541C107.824 198.296 108.086 197.862 108.359 197.284L89.1984 196.027C89.089 196.552 89.0079 196.989 88.9612 197.319L107.579 198.541Z" fill="#D1AF99"/>
<g opacity="0.2">
<path d="M114.006 175.634C114.258 174.228 106.117 174.083 100.387 174.154L100.733 172.249L77.5558 166.367C77.4607 166.751 77.0384 168.344 76.4593 170.536C79.8334 172.551 92.2705 177.589 93.7785 178.253C93.5695 179.097 109.99 179.649 113.257 179.34C113.649 177.487 113.92 176.114 114.006 175.634Z" fill="#231F20"/>
</g>
<path d="M79.0203 159.66C78.7963 160.564 93.6344 167.082 96.3169 168.004C98.9991 168.926 115.699 169.99 116.313 169C116.927 168.011 100.368 162.528 97.828 161.902C95.288 161.277 79.1598 159.096 79.0203 159.66Z" fill="#FC6565"/>
<path d="M96.3169 168.004C95.2687 167.311 80.509 159.429 79.0202 159.66C77.5315 159.89 75.9706 166.658 76.1443 167.721C76.3178 168.785 92.5682 175.358 94.306 176.123C96.0439 176.888 98.8323 175.953 98.8323 175.953L96.3169 168.004Z" fill="#FF4544"/>
<path d="M96.3168 168.004C95.1136 172.603 94.5317 175.212 94.306 176.123C94.0803 177.035 113.247 177.606 114.302 177.119C115.357 176.633 116.541 169.965 116.313 169C116.085 168.035 96.3168 168.004 96.3168 168.004Z" fill="#E32524"/>
<path d="M77.383 194.62C77.1054 194.551 76.9458 194.23 77.0268 193.903C77.0453 193.828 79.0188 185.926 81.2528 177.952C85.5718 162.54 86.4723 162.483 87.0686 162.445C88.845 162.333 96.0326 162.857 96.3377 162.879L96.389 162.883L96.4381 162.898C98.2175 163.462 107.141 166.353 108.103 167.884C108.352 168.279 108.815 169.015 105.02 184.459C103.176 191.961 101.195 199.38 101.176 199.454C101.09 199.776 100.802 199.978 100.529 199.911C100.525 199.91 100.522 199.909 100.518 199.908C100.242 199.832 100.089 199.507 100.176 199.181C103.091 188.276 107.555 170.42 107.215 168.608C106.572 167.771 101.132 165.669 96.1388 164.084C95.4869 164.037 88.919 163.568 87.1347 163.649C85.672 165.142 80.5048 184.169 78.0327 194.151C77.9517 194.478 77.6606 194.688 77.383 194.62Z" fill="#393663"/>
<path d="M102.974 166.138C99.886 165.377 97.1605 163.888 96.9605 163.778L96.2359 163.377L96.9127 162.763C97.8975 161.869 106.642 154.085 110.435 156.107C111.614 156.735 112.175 158.183 112.104 160.413C112.028 162.792 111.286 164.516 109.9 165.539C108.076 166.885 105.412 166.738 102.974 166.138ZM98.2301 163.066C99.0684 163.476 100.516 164.132 102.144 164.637C105.416 165.653 107.919 165.616 109.387 164.533C110.448 163.749 110.994 162.418 111.057 160.463C111.112 158.732 110.735 157.639 109.937 157.214C107.434 155.881 101.193 160.521 98.2301 163.066Z" fill="#393663"/>
<path d="M96.0382 163.738C94.8107 163.435 87.421 161.444 86.1874 157.057C85.7525 155.51 86.1086 153.867 87.2465 152.174C88.2999 150.607 89.4091 149.919 90.5442 150.128C92.1923 150.434 93.7678 152.724 95.2057 156.94C96.2411 159.976 96.8258 162.88 96.8499 163.002L97.043 163.968L96.1995 163.776C96.1767 163.771 96.1215 163.758 96.0382 163.738ZM90.3845 151.342C90.3568 151.335 90.3292 151.33 90.3012 151.324C89.5783 151.191 88.8432 151.697 88.0553 152.869C87.1448 154.223 86.8609 155.445 87.1865 156.603C88.1061 159.875 93.4821 161.738 95.6112 162.355C94.7848 158.741 92.7605 151.927 90.3845 151.342Z" fill="#393663"/>
<path d="M96.8512 164.041C96.8472 164.04 96.8431 164.039 96.8391 164.038C96.1416 163.86 95.6342 163.241 95.5151 162.422C95.3746 161.453 95.0672 158.914 95.2531 156.26C95.4391 153.612 96.0549 151.713 97.0848 150.619C98.0494 149.592 99.3158 149.31 100.854 149.781C102.415 150.259 103.355 151.167 103.649 152.48C104.377 155.738 100.726 160.627 98.7651 163.254C98.2751 163.911 97.5424 164.211 96.8512 164.041ZM96.5492 162.132C96.6034 162.504 96.8237 162.774 97.1391 162.855C97.1411 162.855 97.1431 162.856 97.1451 162.856C97.4558 162.933 97.773 162.802 97.9947 162.505C99.6917 160.233 103.222 155.504 102.633 152.868C102.428 151.954 101.736 151.328 100.513 150.954C99.3374 150.591 98.4336 150.765 97.7615 151.48C95.8745 153.487 96.1117 159.12 96.5492 162.132Z" fill="#393663"/>
<path d="M80.4166 188.772C80.1717 188.711 80.0094 188.448 80.0448 188.144C80.3478 185.56 80.8775 182.983 82.6846 181.638C82.9189 181.464 83.1571 181.326 83.3875 181.192C83.6179 181.058 83.8355 180.932 84.0291 180.782C84.9175 180.093 85.3796 178.875 85.8693 177.588C86.0062 177.227 86.1428 176.868 86.2885 176.521C87.0734 174.651 88.2348 172.967 89.6479 171.651C90.1279 171.204 90.6406 170.795 91.1367 170.399C92.2793 169.486 93.3583 168.623 94.022 167.375C94.2027 167.036 94.3713 166.64 94.5498 166.22C95.1024 164.921 95.7291 163.448 97.0136 163.117L97.2495 163.056L97.4301 163.219C98.9812 164.615 99.9207 166.853 99.9426 169.207C99.9439 169.346 99.9422 169.486 99.9401 169.626C99.9356 169.984 99.9313 170.322 99.9836 170.627C100.007 170.763 100.042 170.896 100.076 171.029C100.13 171.241 100.185 171.459 100.214 171.705C100.359 172.949 99.7694 173.991 99.1993 175C98.8801 175.565 98.5783 176.098 98.4154 176.645C98.106 177.679 98.2904 178.781 98.4852 179.948C98.5728 180.473 98.6635 181.016 98.7091 181.563C98.8615 183.389 98.4921 185.308 97.6684 186.967C97.5198 187.267 97.1987 187.388 96.9499 187.24C96.7016 187.091 96.6208 186.728 96.7694 186.428C97.4789 184.998 97.7973 183.344 97.6661 181.772C97.6252 181.279 97.5426 180.787 97.4555 180.266C97.2432 178.995 97.0235 177.681 97.4269 176.331C97.6364 175.631 97.9914 175.003 98.3351 174.396C98.8347 173.511 99.2669 172.747 99.1749 171.958C99.1565 171.8 99.1136 171.632 99.0679 171.454C99.0257 171.288 98.9839 171.121 98.9547 170.95C98.8815 170.524 98.887 170.106 98.8922 169.703C98.8938 169.573 98.8956 169.443 98.8942 169.314C98.8766 167.404 98.1522 165.583 96.9449 164.383C96.3237 164.708 95.9142 165.67 95.4827 166.684C95.3007 167.113 95.1117 167.556 94.9027 167.949C94.1099 169.44 92.8774 170.425 91.6853 171.377C91.2065 171.76 90.7116 172.155 90.2652 172.571C88.9865 173.761 87.9347 175.286 87.2244 176.978C87.0849 177.311 86.9545 177.655 86.8229 178C86.2883 179.407 85.7354 180.862 84.5644 181.771C84.3101 181.968 84.0496 182.12 83.7973 182.266C83.5845 182.389 83.3834 182.506 83.2009 182.642C81.7198 183.744 81.3305 186.096 81.0819 188.214C81.0425 188.548 80.7786 188.803 80.4921 188.783C80.467 188.782 80.4412 188.778 80.4166 188.772Z" fill="#393663"/>
</g>
<g filter="url(#filter5_d_11_2187)">
<path d="M269.34 205.262C269.34 205.262 267.442 184.376 265.446 177.824L228.838 183.369C228.838 183.369 230.148 201.543 231.734 209.751C231.734 209.751 257.631 208.055 269.34 205.262Z" fill="#199A9A"/>
<path d="M241.936 188.969C241.614 186.49 241.292 184.011 240.969 181.532L239.313 181.783C240.486 190.81 241.659 199.837 242.833 208.865C243.378 208.815 243.935 208.764 244.502 208.711C243.647 202.13 242.791 195.55 241.936 188.969Z" fill="#1ACFCD"/>
<path d="M236.455 190.098C236.117 187.521 235.809 184.94 235.531 182.356L234.873 182.455C235.84 191.42 237.193 200.337 238.7 209.223C238.918 209.205 239.141 209.186 239.366 209.167C238.29 202.829 237.29 196.477 236.455 190.098Z" fill="#1ACFCD"/>
<path d="M232.618 189.285C232.533 187.125 232.508 184.966 232.534 182.809L230.859 183.063C230.789 191.533 231.524 200.04 233.095 208.388C233.173 208.805 233.259 209.222 233.342 209.638C233.811 209.604 234.371 209.563 235.015 209.515C233.686 202.854 232.886 196.068 232.618 189.285Z" fill="#1ACFCD"/>
<path d="M255.211 207.567C254.3 200.715 253.576 193.839 253.051 186.949C252.868 184.558 252.712 182.166 252.576 179.773L250.916 180.025C251.422 188.9 252.243 197.765 253.387 206.588C253.438 206.981 253.492 207.373 253.545 207.766C254.101 207.701 254.657 207.635 255.211 207.567Z" fill="#1ACFCD"/>
<path d="M246.93 189.484C246.607 186.581 246.3 183.675 246.007 180.769L245.344 180.869C246.267 190.033 247.343 199.183 248.573 208.311C248.797 208.288 249.021 208.265 249.245 208.241C248.403 201.998 247.628 195.745 246.93 189.484Z" fill="#1ACFCD"/>
<path d="M258.546 187.666C258.257 184.776 257.991 181.884 257.744 178.991L257.08 179.091C257.873 188.388 258.889 197.668 260.129 206.918C260.354 206.886 260.578 206.853 260.8 206.821C259.945 200.449 259.188 194.063 258.546 187.666Z" fill="#1ACFCD"/>
<path d="M264.601 185.667C264.188 183.158 263.77 180.65 263.348 178.142L261.693 178.393C263.237 187.563 264.718 196.745 266.132 205.938C266.697 205.831 267.244 205.723 267.77 205.612C266.745 198.958 265.693 192.309 264.601 185.667Z" fill="#1ACFCD"/>
<path d="M227.183 176.908C227.183 176.908 260.43 170.85 265.989 172.275C265.989 172.275 266.526 174.301 266.778 176.403C267.2 179.923 267.009 180.771 267.009 180.771C267.009 180.771 236.193 185.102 228.203 185.403C228.203 185.403 226.995 182.675 227.183 176.908Z" fill="#199A9A"/>
<g opacity="0.2">
<path d="M228.99 185.365C229.007 185.578 229.025 185.803 229.044 186.043L266.704 183.705C266.535 182.7 266.361 181.755 266.185 180.886C261.409 181.551 237.127 184.896 228.99 185.365Z" fill="#231F20"/>
</g>
<path d="M249.503 208.967C249.227 209 248.972 208.762 248.933 208.434C248.912 208.266 246.891 191.41 244.956 174.084C244.92 173.758 245.111 173.47 245.385 173.437C245.386 173.437 245.388 173.437 245.39 173.437C245.666 173.407 245.919 173.648 245.956 173.976C247.89 191.297 249.911 208.146 249.931 208.315C249.97 208.642 249.778 208.934 249.503 208.967Z" fill="#E32524"/>
<path d="M252.125 208.828C252.118 208.829 252.11 208.83 252.102 208.83C251.825 208.848 251.578 208.596 251.552 208.267C251.541 208.13 250.395 194.278 245.79 173.977C245.717 173.656 245.876 173.337 246.145 173.265C246.413 173.191 246.69 173.393 246.763 173.714C251.392 194.122 252.545 208.066 252.556 208.204C252.581 208.523 252.39 208.796 252.125 208.828Z" fill="#E32524"/>
<path d="M246.276 174.454C246.008 174.486 245.736 174.37 245.538 174.13C245.299 173.841 245.216 173.431 245.32 173.059C246.156 170.079 248.514 162.985 252.356 161.486C253.815 160.917 255.323 161.213 256.839 162.367C258.183 163.391 258.807 164.546 258.692 165.8C258.33 169.773 250.003 173.149 246.44 174.416L246.44 174.416C246.386 174.435 246.331 174.448 246.276 174.454ZM253.504 162.416C253.237 162.448 252.972 162.516 252.708 162.619C249.324 163.939 247.082 170.698 246.362 173.185C251.494 171.331 257.448 168.277 257.69 165.625C257.759 164.869 257.297 164.107 256.318 163.361C255.345 162.62 254.417 162.307 253.504 162.416Z" fill="#E32524"/>
<path d="M245.545 174.225C245.272 174.258 244.997 174.119 244.81 173.847C243.345 171.708 240.012 166.338 240.708 162.655C240.955 161.349 241.67 160.388 242.833 159.801C243.913 159.256 244.815 159.321 245.514 159.994C247.733 162.13 246.725 170.171 246.189 173.529C246.134 173.873 245.921 174.133 245.634 174.208C245.605 174.216 245.575 174.222 245.545 174.225ZM245.198 173.262C245.198 173.262 245.198 173.262 245.198 173.262C245.198 173.262 245.198 173.262 245.198 173.262ZM244.049 160.638C243.836 160.664 243.576 160.74 243.261 160.899C242.384 161.342 241.871 162.017 241.693 162.96C241.125 165.962 243.995 170.728 245.288 172.681C245.996 167.958 246.295 162.25 244.898 160.905C244.799 160.81 244.557 160.578 244.049 160.638Z" fill="#E32524"/>
<path d="M245.182 174.682C245.181 174.682 245.18 174.682 245.178 174.682C241.33 175.115 232.193 175.784 230.47 172.643C230.157 172.072 229.929 171.108 230.621 169.753C231.235 168.553 232.154 167.816 233.354 167.561C237.417 166.693 243.654 171.722 245.465 173.283C245.691 173.478 245.796 173.805 245.732 174.117C245.669 174.428 245.453 174.649 245.182 174.682ZM245.042 173.496L245.042 173.496L245.042 173.496ZM233.899 168.68C233.788 168.693 233.679 168.711 233.573 168.733C232.643 168.931 231.963 169.476 231.49 170.399C230.973 171.411 231.226 171.872 231.309 172.024C232.332 173.888 238.332 174.154 244.123 173.592C242.053 171.912 237.162 168.29 233.899 168.68Z" fill="#E32524"/>
<path d="M229.317 194.943C229.066 194.973 228.825 194.777 228.759 194.479C228.688 194.157 228.848 193.839 229.118 193.769C241.623 190.489 254.479 188.289 267.332 187.227C267.608 187.204 267.858 187.451 267.888 187.779C267.92 188.108 267.716 188.389 267.443 188.415C254.64 189.472 241.832 191.665 229.375 194.932C229.355 194.938 229.336 194.941 229.317 194.943Z" fill="#E32524"/>
<path d="M229.562 198.692C229.333 198.72 229.104 198.556 229.019 198.285C228.921 197.973 229.053 197.636 229.314 197.533C233.518 195.875 238.004 195.374 242.343 194.892C250.755 193.954 259.453 192.985 268.047 192.285C268.323 192.262 268.573 192.51 268.603 192.838C268.634 193.166 268.434 193.451 268.157 193.473C259.576 194.172 250.884 195.141 242.479 196.078C238.195 196.555 233.766 197.049 229.669 198.665C229.634 198.679 229.598 198.688 229.562 198.692Z" fill="#E32524"/>
<path d="M233.711 180.963C233.531 180.985 233.343 180.89 233.23 180.697C233.068 180.422 233.119 180.053 233.346 179.872L234.535 178.924C234.8 178.714 235.073 178.496 235.356 178.294C236.504 177.473 237.766 176.929 239.106 176.678C239.487 176.606 239.879 176.557 240.257 176.51C241.395 176.367 242.471 176.232 243.288 175.53C243.554 175.301 243.801 174.994 244.063 174.668C244.646 173.942 245.305 173.119 246.309 173.166L246.457 173.173L246.582 173.274C246.904 173.533 247.343 173.66 247.965 173.672C249.033 173.693 250.07 173.427 251.167 173.146C251.534 173.052 251.901 172.958 252.269 172.876C253.618 172.572 255.376 172.331 256.998 173.175C257.256 173.309 257.382 173.662 257.279 173.962C257.176 174.262 256.882 174.397 256.624 174.262C255.262 173.554 253.703 173.775 252.497 174.047C252.137 174.127 251.778 174.219 251.42 174.311C250.315 174.594 249.173 174.886 247.99 174.863C247.505 174.854 246.808 174.789 246.187 174.361C246.183 174.361 246.18 174.361 246.176 174.362C245.68 174.421 245.273 174.928 244.808 175.507C244.528 175.855 244.239 176.215 243.903 176.504C242.879 177.384 241.621 177.542 240.405 177.695C240.022 177.743 239.661 177.788 239.305 177.855C238.107 178.08 236.93 178.587 235.904 179.32C235.641 179.508 235.389 179.709 235.123 179.921L233.933 180.869C233.865 180.923 233.788 180.954 233.711 180.963Z" fill="#E32524"/>
</g>
<defs>
<filter id="filter0_d_11_2187" x="-15" y="0" width="391" height="259" filterUnits="userSpaceOnUse" color-interpolation-filters="sRGB">
<feFlood flood-opacity="0" result="BackgroundImageFix"/>
<feColorMatrix in="SourceAlpha" type="matrix" values="0 0 0 0 0 0 0 0 0 0 0 0 0 0 0 0 0 0 127 0" result="hardAlpha"/>
<feOffset dy="-5"/>
<feGaussianBlur stdDeviation="7.5"/>
<feComposite in2="hardAlpha" operator="out"/>
<feColorMatrix type="matrix" values="0 0 0 0 0 0 0 0 0 0 0 0 0 0 0 0 0 0 0.25 0"/>
<feBlend mode="normal" in2="BackgroundImageFix" result="effect1_dropShadow_11_2187"/>
<feBlend mode="normal" in="SourceGraphic" in2="effect1_dropShadow_11_2187" result="shape"/>
</filter>
<filter id="filter1_d_11_2187" x="-0.884445" y="57.274" width="103.348" height="63.6895" filterUnits="userSpaceOnUse" color-interpolation-filters="sRGB">
<feFlood flood-opacity="0" result="BackgroundImageFix"/>
<feColorMatrix in="SourceAlpha" type="matrix" values="0 0 0 0 0 0 0 0 0 0 0 0 0 0 0 0 0 0 127 0" result="hardAlpha"/>
<feOffset dy="4"/>
<feGaussianBlur stdDeviation="5.5"/>
<feComposite in2="hardAlpha" operator="out"/>
<feColorMatrix type="matrix" values="0 0 0 0 0 0 0 0 0 0 0 0 0 0 0 0 0 0 0.35 0"/>
<feBlend mode="normal" in2="BackgroundImageFix" result="effect1_dropShadow_11_2187"/>
<feBlend mode="normal" in="SourceGraphic" in2="effect1_dropShadow_11_2187" result="shape"/>
</filter>
<filter id="filter2_d_11_2187" x="148.07" y="48.586" width="64.6317" height="73.0421" filterUnits="userSpaceOnUse" color-interpolation-filters="sRGB">
<feFlood flood-opacity="0" result="BackgroundImageFix"/>
<feColorMatrix in="SourceAlpha" type="matrix" values="0 0 0 0 0 0 0 0 0 0 0 0 0 0 0 0 0 0 127 0" result="hardAlpha"/>
<feOffset dy="4"/>
<feGaussianBlur stdDeviation="5.5"/>
<feComposite in2="hardAlpha" operator="out"/>
<feColorMatrix type="matrix" values="0 0 0 0 0 0 0 0 0 0 0 0 0 0 0 0 0 0 0.35 0"/>
<feBlend mode="normal" in2="BackgroundImageFix" result="effect1_dropShadow_11_2187"/>
<feBlend mode="normal" in="SourceGraphic" in2="effect1_dropShadow_11_2187" result="shape"/>
</filter>
<filter id="filter3_d_11_2187" x="244.954" y="52.3132" width="101.984" height="73.0901" filterUnits="userSpaceOnUse" color-interpolation-filters="sRGB">
<feFlood flood-opacity="0" result="BackgroundImageFix"/>
<feColorMatrix in="SourceAlpha" type="matrix" values="0 0 0 0 0 0 0 0 0 0 0 0 0 0 0 0 0 0 127 0" result="hardAlpha"/>
<feOffset dy="4"/>
<feGaussianBlur stdDeviation="5.5"/>
<feComposite in2="hardAlpha" operator="out"/>
<feColorMatrix type="matrix" values="0 0 0 0 0 0 0 0 0 0 0 0 0 0 0 0 0 0 0.35 0"/>
<feBlend mode="normal" in2="BackgroundImageFix" result="effect1_dropShadow_11_2187"/>
<feBlend mode="normal" in="SourceGraphic" in2="effect1_dropShadow_11_2187" result="shape"/>
</filter>
<filter id="filter4_d_11_2187" x="60.5946" y="142.56" width="66.7466" height="72.3638" filterUnits="userSpaceOnUse" color-interpolation-filters="sRGB">
<feFlood flood-opacity="0" result="BackgroundImageFix"/>
<feColorMatrix in="SourceAlpha" type="matrix" values="0 0 0 0 0 0 0 0 0 0 0 0 0 0 0 0 0 0 127 0" result="hardAlpha"/>
<feOffset dy="4"/>
<feGaussianBlur stdDeviation="5.5"/>
<feComposite in2="hardAlpha" operator="out"/>
<feColorMatrix type="matrix" values="0 0 0 0 0 0 0 0 0 0 0 0 0 0 0 0 0 0 0.35 0"/>
<feBlend mode="normal" in2="BackgroundImageFix" result="effect1_dropShadow_11_2187"/>
<feBlend mode="normal" in="SourceGraphic" in2="effect1_dropShadow_11_2187" result="shape"/>
</filter>
<filter id="filter5_d_11_2187" x="216.163" y="152.436" width="64.1766" height="72.315" filterUnits="userSpaceOnUse" color-interpolation-filters="sRGB">
<feFlood flood-opacity="0" result="BackgroundImageFix"/>
<feColorMatrix in="SourceAlpha" type="matrix" values="0 0 0 0 0 0 0 0 0 0 0 0 0 0 0 0 0 0 127 0" result="hardAlpha"/>
<feOffset dy="4"/>
<feGaussianBlur stdDeviation="5.5"/>
<feComposite in2="hardAlpha" operator="out"/>
<feColorMatrix type="matrix" values="0 0 0 0 0 0 0 0 0 0 0 0 0 0 0 0 0 0 0.35 0"/>
<feBlend mode="normal" in2="BackgroundImageFix" result="effect1_dropShadow_11_2187"/>
<feBlend mode="normal" in="SourceGraphic" in2="effect1_dropShadow_11_2187" result="shape"/>
</filter>
</defs>
</svg>
